<?xml version="1.0" encoding="UTF-8" standalone="no"?>
<!-- Created with Inkscape (http://www.inkscape.org/) -->

<svg
   xmlns:dc="http://purl.org/dc/elements/1.1/"
   xmlns:cc="http://creativecommons.org/ns#"
   xmlns:rdf="http://www.w3.org/1999/02/22-rdf-syntax-ns#"
   xmlns:svg="http://www.w3.org/2000/svg"
   xmlns="http://www.w3.org/2000/svg"
   xmlns:sodipodi="http://sodipodi.sourceforge.net/DTD/sodipodi-0.dtd"
   xmlns:inkscape="http://www.inkscape.org/namespaces/inkscape"
   version="1.1"
   id="svg3815"
   width="549.91797"
   height="639.91748"
   viewBox="0 0 549.91797 639.91748"
   sodipodi:docname="logo_noname_transparent2.svg"
   inkscape:version="0.92.3 (2405546, 2018-03-11)">
  <metadata
     id="metadata3821">
    <rdf:RDF>
      <cc:Work
         rdf:about="">
        <dc:format>image/svg+xml</dc:format>
        <dc:type
           rdf:resource="http://purl.org/dc/dcmitype/StillImage" />
        <dc:title></dc:title>
      </cc:Work>
    </rdf:RDF>
  </metadata>
  <defs
     id="defs3819" />
  <sodipodi:namedview
     pagecolor="#ffffff"
     bordercolor="#666666"
     borderopacity="1"
     objecttolerance="10"
     gridtolerance="10"
     guidetolerance="10"
     inkscape:pageopacity="0"
     inkscape:pageshadow="2"
     inkscape:window-width="1366"
     inkscape:window-height="705"
     id="namedview3817"
     showgrid="false"
     inkscape:zoom="0.19666667"
     inkscape:cx="-637.71182"
     inkscape:cy="283.39006"
     inkscape:window-x="1912"
     inkscape:window-y="-8"
     inkscape:window-maximized="1"
     inkscape:current-layer="svg3815" />
  <g
     id="g3859"
     transform="translate(-325,-212.96412)"
     inkscape:export-xdpi="96"
     inkscape:export-ydpi="96">
    <path
       style="fill:#cdd2eb"
       d="m 592.34079,851.54731 c -1.73756,-0.75593 -22.43756,-12.50474 -46,-26.10847 C 393.53884,737.21889 337.06093,704.49919 333.88633,702.35626 c -1.98752,-1.34162 -4.80002,-4.61902 -6.25,-7.28311 L 325,690.22934 325.0439,534.36467 c 0.0472,-167.5947 -0.21114,-159.3673 5.22666,-166.45487 1.98739,-2.59034 33.4302,-21.29558 130.83512,-77.83345 70.52045,-40.933 129.83346,-75.00075 131.80667,-75.70611 1.97321,-0.70535 4.93766,-1.28245 6.58766,-1.28245 6.22276,0 -9.34403,-8.73798 215,120.68422 28.05,16.18181 52.45693,30.81082 54.23763,32.50891 6.76633,6.45244 6.34553,-5.2336 6.03939,167.71908 L 874.5,690.5 l -2.15268,4 c -1.18398,2.2 -3.20898,4.95393 -4.5,6.11985 -1.29103,1.16592 -17.87232,11.11856 -36.84732,22.11698 -18.975,10.99842 -75.675,43.96972 -126,73.26955 -50.325,29.29982 -93.3,54.0998 -95.5,55.11105 -4.71754,2.16847 -12.70305,2.36852 -17.15921,0.42988 z"
       id="path3889"
       inkscape:connector-curvature="0" />
    <path
       style="fill:#bcc2e5"
       d="m 595,851.59523 c -2.475,-0.69838 -34.425,-18.58195 -71,-39.74128 -36.575,-21.15933 -94.09134,-54.42005 -127.8141,-73.91273 -33.72275,-19.49267 -62.86714,-36.9856 -64.7653,-38.87318 -6.50563,-6.46938 -6.18666,2.81125 -5.72478,-166.56804 0.46264,-169.65925 0.0261,-158.87818 6.70729,-165.63754 C 334.31209,364.93115 390.37129,331.79092 464.11335,289 L 592.5,214.5 l 7,0.01 c 6.3835,0.009 7.6165,0.37104 14,4.11286 3.85,2.25676 48.625,28.09142 99.5,57.41037 145.98756,84.13173 150.30023,86.64549 154.10514,89.8246 1.98283,1.65671 4.45355,4.72902 5.49049,6.82735 1.8269,3.69688 1.87549,8.63585 1.56718,159.31515 -0.18283,89.35349 -0.70661,157.01978 -1.23132,159.07277 -0.50222,1.96503 -2.37976,5.22034 -4.17231,7.23403 -2.3323,2.62004 -39.51883,24.75176 -130.75918,77.82192 -70.125,40.78836 -129.48402,74.77054 -131.90893,75.51597 -5.18542,1.594 -5.26808,1.59364 -11.09107,-0.0495 z"
       id="path3887"
       inkscape:connector-curvature="0" />
    <path
       style="fill:#b8bee2"
       d="m 592.32259,850.53965 c -1.74758,-0.76013 -20.87258,-11.60094 -42.5,-24.09067 C 528.19516,813.95924 471.125,781.002 423,753.21067 c -48.125,-27.79134 -88.77871,-51.69542 -90.34158,-53.12019 -1.56287,-1.42476 -3.70037,-4.26005 -4.75,-6.30064 -1.85384,-3.60406 -1.90826,-8.15109 -1.90284,-159 0.004,-108.42475 0.33258,-156.46759 1.08912,-159.19237 0.61549,-2.2168 2.88088,-5.73008 5.24442,-8.13334 3.03666,-3.0877 38.31451,-24.03245 130.56799,-77.51932 69.52391,-40.30868 128.02391,-73.86643 130,-74.57277 1.97609,-0.70634 4.94289,-1.28425 6.59289,-1.28425 6.21935,0 -8.72109,-8.38656 215,120.68657 28.05,16.1831 52.22951,30.58077 53.73225,31.99481 6.18934,5.82406 5.84866,-4.45082 5.54477,167.23083 -0.30682,173.33623 0.2765,158.81343 -6.64989,165.56079 -1.65945,1.61656 -17.10443,11.11009 -34.32216,21.09673 C 815.58724,730.64415 759.2,763.44435 707.5,793.54684 c -51.7,30.10248 -95.8,55.55922 -98,56.57052 -4.72443,2.17172 -12.70438,2.3679 -17.17741,0.42229 z"
       id="path3885"
       inkscape:connector-curvature="0" />
    <path
       style="fill:#b1b8e0"
       d="m 593.26502,850.97439 c -5.16283,-2.07631 -258.36581,-148.7841 -261.14694,-151.31057 -1.31005,-1.1901 -3.21267,-3.96382 -4.22804,-6.16382 -1.76926,-3.83347 -1.84703,-10.42427 -1.86808,-158.30718 -0.0157,-110.68949 0.29478,-155.56506 1.09857,-158.75721 0.65355,-2.59546 2.63313,-6.10402 4.75,-8.41876 5.19814,-5.68401 258.33828,-152.53713 264.42107,-153.39747 8.41092,-1.18963 -8.66674,-10.60174 216.2084,119.16019 28.05,16.18597 52.41643,30.49486 54.14763,31.79754 1.7312,1.30268 4.10058,4.33703 5.26528,6.74299 l 2.11765,4.37449 -0.26528,156.9027 c -0.29475,174.33523 0.33616,159.21993 -6.92996,166.02758 -1.83443,1.71868 -18.86032,12.12132 -37.83532,23.11698 -18.975,10.99566 -75.675,43.96353 -126,73.26193 -50.325,29.2984 -92.94805,53.88326 -94.71788,54.63302 -3.60373,1.52666 -11.61275,1.70671 -15.0171,0.33759 z M 606.5,707.17862 c 1.65,-0.99764 7.05,-3.98756 12,-6.64426 8.64255,-4.63851 97.69661,-52.88158 108,-58.50661 2.75,-1.50134 8.97216,-4.8771 13.82703,-7.5017 4.85486,-2.62459 8.45486,-5.13879 8,-5.5871 C 745.80518,626.45345 603.2465,545 601.41826,545 c -1.62615,0 -2.29514,0.70921 -2.59407,2.75 -0.22155,1.5125 -0.27867,37.85 -0.12693,80.75 0.25517,72.1476 0.40377,78.09379 1.98044,79.25 2.17615,1.59583 2.24996,1.58858 5.8223,-0.57138 z"
       id="path3883"
       inkscape:connector-curvature="0" />
    <path
       style="fill:#b0b7df"
       d="M 594,851.34524 C 590.15949,849.8034 339.2753,704.80102 334.5,701.36322 c -2.2,-1.58382 -5.0125,-4.88381 -6.25,-7.33333 L 326,689.57622 V 535.23093 c 0,-110.65084 0.31722,-155.60507 1.12053,-158.79532 0.65682,-2.60847 2.62252,-6.083 4.75,-8.39601 2.68483,-2.91895 36.92348,-23.25573 131.5513,-78.13769 73.49089,-42.62303 129.62451,-74.57429 131.92341,-75.09081 8.37958,-1.88277 -3.78436,-8.56052 221.65476,121.68385 44.31398,25.6018 50.86749,29.69638 53.5,33.42638 l 3,4.2507 0.26411,154.66398 c 0.18996,111.24406 -0.0504,156.1858 -0.85635,160.08476 -1.88137,9.10204 -4.4729,10.99306 -55.90776,40.7954 -25.575,14.81864 -83.16226,48.2672 -127.97169,74.33013 -80.90114,47.05529 -81.5139,47.38895 -87.5,47.64414 -3.31557,0.14135 -6.70331,-0.014 -7.52831,-0.3452 z m 20.73944,-147.7293 C 625.16224,697.86657 715.14375,649.08748 736,637.88043 c 6.875,-3.69426 12.62558,-7.32525 12.77907,-8.06886 0.29795,-1.44344 -140.24381,-83.26336 -145.42093,-84.66045 -4.24668,-1.146 -6.35814,-0.36121 -6.35814,2.36319 0,2.54979 -1.49175,4.11707 -2.44721,2.5711 -0.32198,-0.52097 -0.12807,-1.22987 0.4309,-1.57533 0.55897,-0.34546 1.0063,-1.16406 0.99407,-1.8191 -0.0122,-0.65504 -0.92228,-0.066 -2.02233,1.30902 -1.37737,1.72164 -1.83634,3.40077 -1.47413,5.39316 0.29317,1.61261 -0.0289,3.57868 -0.72767,4.44196 -0.99802,1.233 -0.99876,1.39567 -0.004,0.79782 1.57068,-0.94363 1.59138,-0.15244 0.0602,2.29943 -1.33761,2.14186 0.28604,5.06763 2.81228,5.06763 0.80273,0 1.37756,1.04321 1.37756,2.5 0,2.96795 -1.51212,3.25408 -3.16976,0.59978 -0.65269,-1.04512 -1.669,-1.71776 -2.25847,-1.49475 -0.58948,0.223 -1.85927,-1.51413 -2.82177,-3.86029 -2.232,-5.44067 -2.177,-6.83602 0.15913,-4.03726 2.00697,2.40441 3.49509,2.01305 2.23947,-0.58896 -0.96388,-1.99745 -0.88187,-5.20291 0.17573,-6.86852 1.27675,-2.01074 -0.16438,-3.40597 -2.32414,-2.2501 -1.22794,0.65717 -2.1234,2.6389 -2.58584,5.72272 -0.56308,3.75487 -0.86449,4.29283 -1.47721,2.6365 -0.42338,-1.14451 -1.48777,-2.35644 -2.36531,-2.69318 -1.75218,-0.6725 -6.5715,1.15684 -6.5715,2.49458 0,0.46171 -0.64234,0.83948 -1.42742,0.83948 -0.78508,0 -2.34202,1.16272 -3.45986,2.58383 -1.11784,1.4211 -2.4912,2.30029 -3.05191,1.95375 -0.56071,-0.34654 -1.97398,-0.11924 -3.14059,0.50512 -1.73417,0.92809 -2.00163,1.71184 -1.46616,4.29624 0.36022,1.73858 0.65262,4.69463 0.64978,6.56899 -0.003,1.87436 0.52663,4.34936 1.17661,5.5 0.64998,1.15064 1.23632,2.76707 1.30299,3.59207 0.0667,0.825 0.43597,2.625 0.82067,4 0.65265,2.33274 0.60094,2.3774 -0.77295,0.66742 -1.4189,-1.76597 -1.51247,-1.75772 -2.5747,0.22709 -0.9496,1.77435 -0.54503,2.61692 2.92062,6.08257 2.21261,2.21261 3.56564,4.02292 3.00674,4.02292 -0.5589,0 -1.76724,1.575 -2.68521,3.5 -1.00197,2.10114 -2.39436,3.5 -3.48382,3.5 -1.95619,0 -2.44301,-1.4937 -0.81479,-2.5 1.43884,-0.88925 1.2344,-3.54688 -0.25,-3.25 -0.6875,0.1375 -1.07007,-0.425 -0.85015,-1.25 0.86181,-3.23302 0.89243,-7.54536 0.0607,-8.54755 -0.52395,-0.63132 -0.15289,-2.23578 0.92577,-4.00304 1.70364,-2.79119 1.70982,-3.16399 0.11521,-6.94941 -0.92675,-2.2 -1.7449,-5.75119 -1.81813,-7.89154 -0.14823,-4.33284 -0.54956,-5.11822 -2.11956,-4.14791 -0.7302,0.45129 -0.7513,1.25491 -0.0665,2.5344 1.29302,2.41603 1.2947,7.70655 0.003,8.50505 -0.55,0.33992 -1.07697,-0.19602 -1.17105,-1.19098 -0.0941,-0.99496 -0.27124,-2.48402 -0.3937,-3.30902 -0.12246,-0.825 -0.27049,-2.0625 -0.32895,-2.75 -0.0585,-0.6875 -0.72278,-1.25 -1.47625,-1.25 -1.67394,0 -2.86843,8.68606 -1.53669,11.17445 0.6182,1.1551 0.42635,2.16298 -0.60874,3.19807 -2.00285,2.00285 -3.00294,7.29801 -1.67954,8.89262 0.76569,0.92259 0.50068,1.94929 -0.96858,3.75248 -1.43731,1.76397 -1.85129,1.95293 -1.43048,0.65291 0.89804,-2.77429 -0.46144,-9.72542 -1.78092,-9.10604 -0.61881,0.29047 -0.1126,-0.22259 1.1249,-1.14015 1.2375,-0.91756 2.25,-2.31495 2.25,-3.10533 0,-0.79037 0.3876,-1.19749 0.86134,-0.90471 0.47374,0.29279 -0.0406,-1.29063 -1.14295,-3.51869 -1.49814,-3.028 -2.23996,-3.71574 -2.93747,-2.72332 -0.73876,1.05109 -0.84892,1.0152 -0.52872,-0.17229 0.22245,-0.825 1.38171,-1.6438 2.57613,-1.81955 1.94292,-0.28589 3.26044,-3.21273 1.42167,-3.15821 -1.47478,0.0437 -5.75,3.88817 -5.75,5.17064 0,0.74644 -1.22235,1.35099 -2.84969,1.40941 -1.56733,0.0562 -3.14233,0.55128 -3.5,1.10005 -0.35767,0.54878 -1.88781,1.40275 -3.40031,1.89772 -2.55405,0.83582 -3.72403,2.2895 -2,2.48498 0.4125,0.0468 1.3125,0.55187 2,1.12244 2.40409,1.99522 0.81451,8.87748 -1.69253,7.32804 -0.85296,-0.52716 -0.72084,-1.40033 0.49192,-3.25124 0.91193,-1.39179 1.15821,-2.2216 0.54727,-1.84402 -0.61093,0.37758 -1.38075,-0.017 -1.71071,-0.87688 C 532.05599,585.70352 530.70917,585 529.39301,585 527.40973,585 527,585.50515 527,587.95031 c 0,1.62267 0.60324,3.31017 1.34053,3.75 2.04354,1.21907 2.54578,4.71914 1.0615,7.39756 l -1.33116,2.40213 -0.0354,-2.75 c -0.0195,-1.5125 0.0771,-2.93875 0.21456,-3.16944 0.1375,-0.23069 -0.875,-1.61694 -2.25,-3.08056 -1.375,-1.46362 -2.35375,-2.95112 -2.175,-3.30556 0.17875,-0.35444 -0.15875,-0.80569 -0.75,-1.00277 -1.30676,-0.43559 -1.44704,2.46036 -0.15778,3.25717 0.55466,0.3428 0.5445,1.91678 -0.0257,3.98189 -0.51861,1.87826 -0.81886,3.95598 -0.66722,4.61714 0.15164,0.66117 -0.28679,1.40838 -0.97429,1.66046 -1.19254,0.43727 -1.72958,-1.51769 -1.27915,-4.65643 0.11429,-0.79645 -0.5934,-2.03395 -1.57265,-2.75 -1.62395,-1.18743 -1.6318,-1.3019 -0.0894,-1.3019 0.93012,0 1.69113,-0.675 1.69113,-1.5 0,-0.825 -0.23131,-1.5 -0.51402,-1.5 -1.33089,0 -7.46266,4.63327 -7.4736,5.64717 -0.0171,1.58182 5.16567,7.35283 6.60332,7.35283 0.64368,0 1.4098,0.62407 1.70249,1.38682 0.37333,0.97287 -0.0425,1.23654 -1.39301,0.88336 -2.62115,-0.68544 -2.4302,1.12726 0.32482,3.0836 2.08727,1.48217 2.12343,1.6754 0.5,2.67166 -0.9625,0.59067 -1.75,1.72658 -1.75,2.52425 0,1.63154 -0.19077,1.69807 -2.41821,0.84332 C 513.5359,613.60793 513.52483,611 515.56739,611 c 1.16682,0 1.38794,-0.57502 0.86522,-2.25 -0.3862,-1.2375 -1.12144,-2.52005 -1.63388,-2.85011 -0.80394,-0.51781 -1.44534,-2.43577 -1.72222,-5.14989 -0.0421,-0.4125 -0.72915,-0.75 -1.52682,-0.75 -0.79767,0 -1.87706,-0.76255 -2.39864,-1.69456 -0.80236,-1.43375 -1.41632,-0.9566 -3.989,3.10009 -2.78575,4.39266 -3.00952,5.38427 -2.66898,11.82695 0.20444,3.86776 0.85213,7.51272 1.43932,8.09991 0.58718,0.58718 1.06761,1.84011 1.06761,2.78428 0,0.94416 0.50556,1.88518 1.12347,2.09115 0.61791,0.20597 1.41305,2.15597 1.76697,4.33334 0.78402,4.82343 3.43925,5.46829 3.94805,0.95884 0.18616,-1.65 0.80372,-3.56245 1.37235,-4.24989 0.89159,-1.07788 1.41098,-3.43924 1.9891,-9.04314 0.0734,-0.71117 0.68549,-1.08118 1.36027,-0.82224 2.51841,0.96641 7.43979,-6.64663 7.43979,-11.50885 0,-1.27289 -0.45202,-1.76039 -1.25,-1.34812 -0.6875,0.35519 -0.2917,-0.18076 0.87956,-1.19098 1.17126,-1.01023 2.38143,-2.51178 2.68925,-3.33678 0.30783,-0.825 0.38304,1.16046 0.16713,4.41213 -0.21591,3.25167 -0.76024,6.17667 -1.20961,6.5 -0.76464,0.55017 -3.27633,5.63662 -3.27633,6.63492 0,0.24912 0.675,0.45295 1.5,0.45295 0.825,0 1.5,0.6199 1.5,1.37756 0,0.75765 0.68587,1.94678 1.52417,2.6425 0.83829,0.69572 1.33011,1.459 1.09293,1.69618 -0.75966,0.75965 -6.35336,-2.58657 -6.95806,-4.1624 -0.34322,-0.89441 -1.23311,-1.27078 -2.1619,-0.91437 -1.17593,0.45125 -1.41994,1.40346 -0.95663,3.73314 1.40966,7.08826 1.592,9.11429 0.70685,7.85396 C 517.01106,628.46626 513,627.80188 513,629.35742 c 0,0.68342 0.52525,1.76783 1.16722,2.4098 0.88962,0.88962 0.78572,1.31361 -0.43686,1.78276 -0.88224,0.33854 -1.37025,1.22488 -1.08446,1.96964 0.28579,0.74475 1.15738,1.10936 1.93686,0.81025 0.77948,-0.29912 1.42338,-0.1582 1.43089,0.31314 0.008,0.47135 0.29896,1.98199 0.64765,3.35699 0.3487,1.375 0.30506,2.2 -0.097,1.83333 -0.40204,-0.36666 -0.65634,-0.9858 -0.56509,-1.37585 0.0912,-0.39005 -1.0791,-1.52589 -2.60076,-2.52408 -2.70227,-1.77267 -2.80891,-1.76618 -4.58256,0.27886 -2.37475,2.73811 -2.31657,4.12605 0.11835,2.82292 2.57511,-1.37816 3.06574,-1.30879 3.06574,0.43344 0,0.83191 0.59333,1.24093 1.36858,0.94344 1.55111,-0.59522 2.97901,3.25508 1.53754,4.14596 -0.49835,0.30801 -0.9061,0.0835 -0.9061,-0.499 C 514,645.47656 513.37314,645 512.60699,645 c -0.76616,0 -1.67169,-0.72622 -2.01229,-1.61381 -0.56932,-1.48364 -0.79978,-1.48282 -2.85699,0.0101 -5.19454,3.76965 -11.73771,5.5361 -11.73771,3.1688 0,-0.76307 1.13684,-1.31509 2.70833,-1.31509 1.48959,0 2.87709,-0.50625 3.08334,-1.125 0.20625,-0.61875 1.04282,-1.125 1.85905,-1.125 0.97476,0 1.28773,-0.61856 0.91198,-1.80246 -0.31464,-0.99135 0.0907,-2.67885 0.90081,-3.75 1.71825,-2.27198 1.97998,-5.13304 0.51426,-5.62162 -0.56223,-0.18741 -1.26415,-1.68741 -1.55982,-3.33333 -0.62738,-3.49242 -2.42774,-5.6477 -3.12628,-3.74259 -0.6459,1.76155 -3.29167,1.5606 -3.29167,-0.25 0,-0.825 0.72748,-1.5 1.61663,-1.5 1.23071,0 1.43868,-0.53713 0.87121,-2.25 -0.40998,-1.2375 -0.7111,-5.06568 -0.66916,-8.50707 0.073,-5.99084 -0.0102,-6.21078 -1.95685,-5.16898 -1.11822,0.59845 -2.26464,0.85657 -2.54761,0.5736 -0.82162,-0.82162 0.72113,-2.72247 2.01119,-2.47802 2.37357,0.44976 5.57395,-1.26821 5.02543,-2.69765 -0.4349,-1.13332 -1.76378,-0.77259 -6.47912,1.75876 l -5.93201,3.1845 0.64369,4.29243 c 0.73462,4.89879 -0.98255,6.04668 -1.9334,1.29243 -0.33,-1.65 -1.07621,-3 -1.65824,-3 -2.00801,0 -11.4887,5.31267 -10.24176,5.73914 2.02149,0.69139 1.43051,3.26086 -0.75,3.26086 -1.46667,0 -2,0.66667 -2,2.5 0,1.375 0.45,2.5 1,2.5 0.55,0 1,0.47656 1,1.05902 0,0.58246 -0.4787,0.76316 -1.06378,0.40156 -0.72059,-0.44535 -0.84599,0.50345 -0.38871,2.94099 0.60186,3.20815 0.44609,3.59843 -1.43622,3.59843 -2.22209,0 -3.03914,-3.30852 -1.11129,-4.5 1.39724,-0.86354 1.25271,-3.5 -0.19187,-3.5 -0.65552,0 -2.92388,1.85742 -5.0408,4.12761 -3.70759,3.97604 -4.42116,6.37239 -1.89752,6.37239 0.66173,0 1.58048,0.61054 2.04166,1.35676 1.07669,1.74212 2.52018,-0.28951 1.70853,-2.40465 -0.766,-1.99615 0.37648,-1.82496 1.98795,0.29789 1.75236,2.30843 1.72108,3.25 -0.10795,3.25 -0.825,0 -1.5,0.45 -1.5,1 0,0.55 1.58912,1 3.53138,1 4.10715,0 5.69992,-2.37917 2.94255,-4.3954 -1.31005,-0.95794 -1.45689,-1.4971 -0.55889,-2.05209 0.70914,-0.43827 1.76193,-0.009 2.51986,1.02757 1.2264,1.6772 1.37186,1.6495 2.51047,-0.478 0.66475,-1.2421 0.88598,-3.0107 0.49162,-3.93022 -1.19881,-2.79523 -1.42096,-10.3333 -0.3628,-12.31048 1.32178,-2.46977 2.92581,-2.36974 2.92581,0.18246 0,2.13324 2.78236,2.43296 4.23469,0.45616 0.47014,-0.63993 0.7402,-0.594 0.75,0.12756 0.0316,2.32743 -2.69397,3.57094 -4.86085,2.21771 -2.83189,-1.76855 -4.13956,0.0266 -1.37384,1.88601 1.2375,0.83197 2.25,2.1469 2.25,2.92208 0,0.77517 0.62624,1.64972 1.39164,1.94343 1.07928,0.41416 0.87953,1.08659 -0.89001,2.99595 -3.27193,3.53048 -5.07512,8.23377 -3.68838,9.62051 0.80265,0.80265 1.52095,0.75427 2.64437,-0.17808 1.33988,-1.112 1.54238,-0.82053 1.54238,2.21994 0,3.50437 0.97246,4.88979 4.25332,6.05955 1.65569,0.59031 1.65963,0.48212 0.0707,-1.94286 -1.34287,-2.04948 -1.44576,-2.94724 -0.5096,-4.44628 1.59888,-2.56021 1.22745,-9.69547 -0.54,-10.3737 -0.77066,-0.29573 -1.12112,-0.99087 -0.77881,-1.54476 C 488.43334,627.48982 490,627.79818 490,629.5 c 0,0.83333 0.88889,1.5 2,1.5 1.10429,0 2,-0.66667 2,-1.48857 0,-2.09975 -3.05935,-5.42589 -4.48684,-4.87811 -1.3033,0.50013 -4.14285,-2.33697 -3.24131,-3.23851 0.30627,-0.30627 1.50261,-0.0507 2.65854,0.56793 1.80228,0.96456 2.22434,0.79803 2.96272,-1.16897 0.47357,-1.26158 0.68255,-3.30627 0.4644,-4.54377 -0.2196,-1.2458 0.11044,-2.25 0.73951,-2.25 0.67265,0 0.94117,-1.01987 0.65823,-2.5 -0.26285,-1.375 -0.0903,-2.5 0.38342,-2.5 0.47373,0 0.86133,0.70156 0.86133,1.55902 0,0.93567 0.46778,1.26991 1.16994,0.83595 0.82341,-0.50889 0.93991,-0.15613 0.39334,1.19099 -0.42713,1.05272 -0.90679,3.24843 -1.0659,4.87936 -0.15912,1.63093 -0.78612,3.13093 -1.39334,3.33333 -1.72972,0.57658 -1.34974,5.20135 0.42734,5.20135 0.84227,0 1.79556,0.68841 2.11843,1.5298 0.34555,0.9005 1.29249,1.3059 2.30195,0.98551 0.99469,-0.3157 1.73148,-0.0132 1.75438,0.7202 0.0217,0.69547 0.17053,1.71449 0.3307,2.26449 0.55061,1.89061 -1.24913,6.48683 -2.2885,5.84446 -0.66013,-0.40798 -0.85329,0.32619 -0.53033,2.01566 0.38137,1.99503 0.20764,2.40811 -0.69702,1.6573 C 496.04253,639.79041 495,640.70361 495,643.22568 c 0,1.0408 -0.42137,1.63194 -0.93637,1.31365 -0.96894,-0.59884 -1.06799,-4.54078 -0.10604,-4.22013 0.29833,0.0994 0.76741,-0.24875 1.04241,-0.77375 0.275,-0.525 1.52994,-1.98448 2.78876,-3.24331 1.83096,-1.83095 2.07991,-2.67901 1.24463,-4.23976 -1.59949,-2.98866 -2.59968,-3.19911 -4.61589,-0.97121 -1.97479,2.18211 -3.09834,9.48572 -2.33197,15.15883 0.0929,0.6875 -8.8e-4,1.925 -0.20834,2.75 -0.2986,1.18745 0.56045,1.4585 4.12281,1.30085 3.46814,-0.15349 4.0939,0.0326 2.72897,0.81146 -0.97407,0.55584 -1.51001,1.43295 -1.19099,1.94915 1.02295,1.65516 2.30424,1.01423 4.12109,-2.06146 0.97468,-1.65 2.40188,-3 3.17155,-3 1.14088,0 1.10105,0.45533 -0.21561,2.46482 -1.98229,3.02535 -2.0089,3.53518 -0.18456,3.53518 0.78675,0 1.57425,1.0125 1.75,2.25 0.24492,1.7245 1.0786,2.32319 3.56955,2.56336 2.01311,0.1941 3.25,0.86012 3.25,1.75 0,0.79015 0.64286,1.43664 1.42857,1.43664 0.78572,0 2.09201,0.66344 2.90287,1.4743 1.29907,1.29907 1.55156,1.27298 2.12429,-0.21952 0.35748,-0.9316 0.35645,-1.40029 -0.002,-1.04154 -0.90898,0.90899 -6.1324,-4.61838 -7.00462,-7.41221 -0.3951,-1.26557 -1.03842,-2.52603 -1.42961,-2.80103 -0.39118,-0.275 -1.02516,-1.78154 -1.40883,-3.34787 -1.06904,-4.36429 1.61445,-2.82537 3.15874,1.81147 1.4696,4.41258 7.51772,11.0952 9.13635,10.09483 0.61955,-0.3829 0.84601,-1.85795 0.51734,-3.36972 -0.4483,-2.06198 -0.33972,-2.33906 0.46581,-1.18871 0.85105,1.21535 1.42061,1.27061 3.00138,0.29118 1.74199,-1.07932 2.17613,-0.77693 4.05222,2.82243 1.15566,2.21719 1.64144,3.7471 1.0795,3.3998 -1.33343,-0.8241 -1.33823,4.02663 -0.006,6.51509 0.65145,1.21724 1.60952,1.66898 2.67361,1.26065 1.24429,-0.47748 1.50054,-0.2251 1.02628,1.01079 -0.3879,1.01086 0.0212,2.01276 1.05904,2.59356 1.33699,0.74822 1.91642,0.39522 2.76701,-1.68573 1.27668,-3.1234 -0.79613,-6.40928 -3.43824,-5.45039 -1.37258,0.49814 -1.35145,0.29457 0.14705,-1.41656 2.51392,-2.87061 2.33119,-4.72223 -0.32569,-3.30031 -1.88456,1.00858 -1.97671,0.92592 -1.00076,-0.89767 0.89287,-1.66834 0.72699,-2.11898 -0.97935,-2.66055 -1.12986,-0.3586 -1.80481,-1.17632 -1.49989,-1.81715 0.30492,-0.64083 0.83218,-1.95264 1.17168,-2.91514 0.3395,-0.9625 1.19164,-1.75 1.89365,-1.75 0.70201,0 1.55332,-0.72169 1.8918,-1.60375 0.35137,-0.91567 1.25537,-1.35818 2.10699,-1.03139 0.90483,0.34722 1.49157,-0.005 1.49157,-0.89624 0,-1.65045 1.56917,-1.97473 2.47368,-0.51121 0.32544,0.52658 -0.70962,1.63036 -2.30013,2.45284 -3.01133,1.55723 -5.84689,6.69124 -4.71085,8.52939 1.05299,1.70378 2.5373,1.2221 2.5373,-0.82337 0,-1.49664 0.6439,-1.83308 3.13345,-1.63724 2.93514,0.2309 5.77483,2.94602 4.45821,4.26264 C 545.26625,661.06708 545,660.80833 545,660.16667 545,659.525 543.91455,659 542.5879,659 c -2.05478,0 -2.51745,0.62351 -3.1232,4.20893 -0.4739,2.80498 -0.33643,4.33383 0.4121,4.58334 1.39786,0.46595 1.45552,3.71826 0.11049,6.23148 -0.79022,1.47653 -0.6136,2.10588 0.80388,2.86449 2.88142,1.54209 5.40433,-1.57685 3.43256,-4.2435 -0.46554,-0.62961 -0.79151,-2.26974 -0.72437,-3.64474 0.0671,-1.375 -0.23162,-3.5125 -0.6639,-4.75 -0.91276,-2.61299 0.32315,-2.96874 2.24959,-0.64752 0.78393,0.94457 1.40619,4.52925 1.51567,8.73135 0.13705,5.26044 0.59964,7.38997 1.76498,8.12505 2.13716,1.34809 4.16899,-0.7001 3.11655,-3.14166 -1.42303,-3.30131 -1.26105,-22.25591 0.20056,-23.46894 0.72445,-0.60124 1.36149,-0.92557 1.41564,-0.72072 0.0542,0.20484 0.20674,6.44744 0.3391,13.87244 0.24336,13.65188 0.96506,18.48724 2.6078,17.47197 0.49575,-0.30639 1.68836,0.36208 2.65025,1.48548 2.22516,2.5988 3.0546,2.5665 5.32698,-0.20745 1.67335,-2.0427 1.70393,-2.4651 0.33184,-4.58456 -1.30843,-2.02113 -1.32066,-2.55816 -0.091,-4 0.78117,-0.91599 1.33684,-3.01544 1.23483,-4.66544 -0.2088,-3.37724 1.3489,-6.5 3.24235,-6.5 0.6927,0 1.25945,-0.43448 1.25945,-0.96552 0,-0.53104 1.35,-2.34655 3,-4.03448 3.35745,-3.43462 3.59354,-4.63118 1.4682,-7.44113 -1.56262,-2.06596 -1.96347,-4.58682 -0.7182,-4.51654 0.4125,0.0233 1.74472,1.60269 2.96048,3.50982 l 2.21048,3.46749 -2.21048,3.74018 C 575.49472,661.81692 574.5,665.075 574.5,667 c 0,1.925 -0.45,3.6125 -1,3.75 -0.97389,0.24347 -1.11517,-0.0941 -1.375,-3.28518 -0.10033,-1.23226 -0.52923,-1.31885 -2.17356,-0.43883 -1.56967,0.84006 -1.9546,1.84182 -1.64662,4.28518 0.22107,1.75386 -0.0702,4.08883 -0.64718,5.18883 -0.57701,1.1 -1.09292,4.63814 -1.14646,7.86252 -0.084,5.06143 0.21494,6.06715 2.18802,7.35996 1.25695,0.82358 2.86368,1.2755 3.57051,1.00426 1.55663,-0.59733 2.16637,-9.72674 0.64964,-9.72674 -0.57056,0 -0.77636,0.42234 -0.45733,0.93854 0.31902,0.5162 -0.17394,1.36049 -1.09548,1.87621 -1.08338,0.60629 -1.43613,1.56152 -0.99814,2.7029 0.54016,1.40764 0.40089,1.53577 -0.68752,0.63247 -0.75069,-0.62302 -1.73678,-0.79917 -2.1913,-0.39144 -0.45451,0.40772 -0.0756,-0.37131 0.84201,-1.73119 0.91763,-1.35987 1.66841,-3.55247 1.66841,-4.87244 0,-1.9526 0.263,-2.18167 1.41097,-1.22894 1.08022,0.8965 1.58487,0.88964 2.15278,-0.0293 0.42896,-0.69408 -0.0607,-1.79494 -1.16097,-2.61038 -1.86807,-1.38441 -1.86737,-1.43636 0.0384,-2.8483 2.78729,-2.06508 3.68286,-1.78037 2.99689,0.95274 -0.33004,1.31499 -0.2163,2.62808 0.25275,2.91798 1.02422,0.633 0.9012,10.46275 -0.16211,12.95384 -1.08526,2.54253 0.90709,4.39143 5.52849,5.13042 2.48256,0.39698 4.26363,1.30498 4.65818,2.37479 1.111,3.01246 4.95134,4.52587 4.95134,1.95124 0,-1.56355 3.28533,-6.71918 4.28167,-6.71918 1.88781,0 1.86869,1.56586 -0.044,3.60179 -2.34302,2.49403 -1.75502,5.34907 0.68465,3.32432 1.16256,-0.96484 1.41097,-0.63003 1.41097,1.90176 0,3.31368 1.98362,5.09072 5.73944,5.14172 1.23169,0.0167 6.63169,-2.39242 12,-5.35365 z m -27.23793,-10.47177 c 0.0624,-3.10429 -0.36238,-5.96794 -0.94401,-6.36366 -0.72903,-0.496 -0.66924,-1.34597 0.1925,-2.73643 0.6875,-1.10932 1.25,-2.66741 1.25,-3.46242 0,-0.79501 1.275,-2.35335 2.83333,-3.46298 2.21328,-1.57599 2.83334,-1.70032 2.83334,-0.5681 0,0.79718 -0.33098,1.44942 -0.73551,1.44942 -0.40453,0 -1.20612,1.35 -1.78132,3 -0.57519,1.65 -1.57096,3 -2.21283,3 -0.76957,0 -0.61937,0.83583 0.44103,2.4542 1.4861,2.26809 1.47945,2.52617 -0.0878,3.40323 -1.31923,0.73828 -1.43911,1.25832 -0.53983,2.34188 1.40785,1.69635 1.23911,5.59072 -0.26728,6.16878 -0.72153,0.27687 -1.05644,-1.50533 -0.98166,-5.22392 z m -11.16818,0.3146 c 0,-1.79345 2.80255,-1.5546 3.41714,0.29123 0.23639,0.70998 -0.41183,1.25 -1.50047,1.25 -1.05982,0 -1.91667,-0.689 -1.91667,-1.54123 z m 6.20368,0.29123 c -0.67123,-2.09644 -1.58254,-8.99654 -1.816,-13.75 -0.12156,-2.475 -0.79934,-5.5125 -1.50619,-6.75 -1.21229,-2.12238 -0.0149,-3.35355 1.25819,-1.29367 0.32507,0.52598 1.13913,0.74731 1.80902,0.49185 0.89466,-0.34117 1.26863,1.97882 1.40882,8.73995 0.10497,5.06243 0.45105,10.2411 0.76906,11.50815 0.59364,2.36527 -1.19003,3.34269 -1.9229,1.05372 z m 10.21175,-4.52199 c -0.56834,-4.55735 -0.47075,-4.69585 2.15386,-3.05675 2.60997,1.62995 2.70908,4.431 0.20422,5.77156 -1.67381,0.8958 -1.94703,0.58124 -2.35808,-2.71481 z M 560.7727,682.4087 c 0.25325,-1.32478 0.83003,-2.4087 1.28173,-2.4087 1.23493,0 0.69537,3.88203 -0.60915,4.38262 -0.72024,0.27639 -0.96528,-0.44275 -0.67258,-1.97392 z m -3.92501,-2.1587 c -0.0838,-0.4125 -0.21708,-1.2 -0.29624,-1.75 -0.0792,-0.55 -0.73207,-2.06973 -1.45093,-3.37717 -0.86284,-1.56933 -0.95903,-2.59224 -0.28305,-3.01002 0.56318,-0.34806 1.33487,-1.87158 1.71486,-3.3856 0.37999,-1.51401 1.40691,-3.15346 2.28205,-3.64321 1.33661,-0.748 1.37915,-1.14588 0.26594,-2.48722 C 557.96277,661.25021 558.00009,661 559.31854,661 c 0.85988,0 1.84608,0.45734 2.19154,1.01631 0.34546,0.55897 1.04702,0.75742 1.55902,0.44098 1.18975,-0.73531 1.22139,-4.45729 0.0379,-4.45729 -1.69103,0 -1.95317,-2.77459 -0.46313,-4.90193 2.15693,-3.07945 3.66685,-1.50292 1.59502,1.6654 -0.95638,1.46255 -1.17638,2.31252 -0.48888,1.88884 0.78814,-0.48571 1.25,-0.21266 1.25,0.73898 0,0.83013 0.65983,1.87859 1.46629,2.32991 1.89483,1.0604 0.8663,5.6204 -1.09771,4.86674 C 564.59333,664.29045 564,664.69947 564,665.53138 564,666.34551 563.08596,667 561.94897,667 c -2.76781,0 -5.05809,5.55271 -4.2766,10.36849 0.32412,1.99733 0.30544,3.63151 -0.0415,3.63151 -0.34696,0 -0.69938,-0.3375 -0.78315,-0.75 z M 560,675.5 c 0,-0.825 0.45,-1.5 1,-1.5 0.55,0 1.03553,-1.0125 1.07895,-2.25 0.0434,-1.2375 0.31236,-1.66819 0.59763,-0.95709 C 563.39086,672.57335 562.1816,677 560.98095,677 560.44143,677 560,676.325 560,675.5 Z m 34.80569,-1.02713 c -0.83156,-1.82507 -0.84839,-2.83017 -0.0606,-3.61798 0.60395,-0.60395 0.84589,-2.60042 0.54203,-4.47287 C 594.9346,664.20958 595.14276,663 595.86916,663 c 0.73342,0 1.13084,2.46005 1.13084,7 0,3.85 -0.23465,7 -0.52144,7 -0.28679,0 -1.03958,-1.13721 -1.67287,-2.52713 z M 589,670.94098 c 0,-2.11824 -0.38443,-2.86429 -1.25,-2.42584 -0.6875,0.34825 -0.37649,-0.0752 0.69113,-0.94098 2.36539,-1.91821 5.62765,-2.24294 3.75887,-0.37416 -0.66,0.66 -1.2,2.46 -1.2,4 0,1.54 -0.45,2.8 -1,2.8 -0.55,0 -1,-1.37656 -1,-3.05902 z m -8,-1.77586 c 0,-0.55085 -0.27314,-1.71335 -0.60699,-2.58333 -0.43892,-1.14381 -0.004,-1.58179 1.56955,-1.58179 1.66532,0 2.10149,0.51007 1.85699,2.17167 -0.31653,2.15114 -2.81955,3.9208 -2.81955,1.99345 z m 4,-4.05434 c 0,-0.48906 0.85746,-1.94813 1.90547,-3.24237 C 589.14146,659.10708 588.11397,656 584.96482,656 583.88417,656 583,655.33912 583,654.53138 c 0,-0.83191 -0.59333,-1.24093 -1.36858,-0.94344 -0.82885,0.31806 -1.59611,-0.3449 -1.94552,-1.68106 -0.42345,-1.61928 0.23484,-2.96456 2.47433,-5.05656 C 585.56722,643.66771 587,643.26796 587,645.5 c 0,0.83333 -0.88889,1.5 -2,1.5 -1.31306,0 -2,0.66667 -2,1.94098 0,2.87829 1.42516,3.24322 3.84856,0.98548 1.4023,-1.30644 2.16203,-1.55555 2.18185,-0.71542 0.0181,0.76897 0.4416,0.58298 1.04969,-0.46104 1.36858,-2.34971 2.9199,-2.21689 2.9199,0.25 0,1.45377 -0.66667,2 -2.44098,2 -3.11616,0 -4.24367,1.77888 -2.11439,3.33586 2.19354,1.60395 2.22761,5.00098 0.0994,9.91414 C 587.76816,666.04123 585,666.71356 585,665.11078 Z m 6,-2.905 c 0,-0.52849 0.7269,-1.56417 1.61534,-2.3015 1.39754,-1.15986 1.56608,-1.08641 1.25,0.54469 C 593.4887,662.39259 591,663.91847 591,662.20578 Z m -10.75,-0.86806 C 578.8388,660.76829 578.52034,657 579.88342,657 c 0.48589,0 1.09848,1.125 1.36133,2.5 0.26285,1.375 0.42781,2.46447 0.36658,2.42105 -0.0612,-0.0434 -0.67383,-0.30592 -1.36133,-0.58333 z m -32.91667,-3.79373 c 0,-0.80081 0.38234,-1.21971 0.84965,-0.9309 0.4673,0.28881 0.59075,0.94401 0.27431,1.45601 -0.80862,1.30838 -1.12396,1.16106 -1.12396,-0.52511 z M 595,657.14235 c 0,-1.08663 -0.5625,-2.17658 -1.25,-2.42211 -0.6875,-0.24554 -0.97691,-0.74363 -0.64313,-1.10687 0.33378,-0.36325 1.34628,-0.37671 2.25,-0.0299 1.80472,0.69253 2.22904,3.9364 0.64313,4.91655 -0.55,0.33992 -1,-0.27102 -1,-1.35765 z m -37.31512,0.20919 c -0.35666,-0.35665 -0.38141,-1.71249 -0.055,-3.01298 0.3264,-1.30049 0.0381,-3.03369 -0.64066,-3.85155 -1.49754,-1.80443 -7.62411,-1.97881 -8.32694,-0.23701 -0.27741,0.6875 -0.53991,0.0125 -0.58333,-1.5 -0.0852,-2.96721 -0.97999,-3.44896 -2.87895,-1.55 -0.93333,0.93333 -1.2,0.87492 -1.2,-0.26287 0,-0.80458 0.97649,-1.90708 2.16997,-2.45 3.21994,-1.46476 3.40648,-5.26736 0.32722,-6.67036 C 545.12374,637.19098 544,636.1386 544,635.47816 c 0,-1.59547 5.16075,-0.61729 6.52638,1.23702 1.30141,1.76711 4.48464,0.64041 4.44182,-1.57217 C 554.93467,633.41105 552.72712,630 551.63976,630 551.28789,630 551,630.98601 551,632.19113 c 0,2.14132 -0.0334,2.147 -1.4682,0.25 -1.93456,-2.55772 -1.90102,-3.5951 0.10461,-3.23497 0.9487,0.17035 1.75524,-0.46353 1.91917,-1.50833 0.15552,-0.99119 0.95495,-2.82805 1.7765,-4.0819 0.96488,-1.47259 1.17594,-2.78181 0.59614,-3.69783 -1.33475,-2.10875 -1.11755,-3.63147 0.61269,-4.29543 1.17479,-0.45081 1.32901,-0.21265 0.64907,1.00234 -0.63636,1.13711 -0.21553,2.32339 1.46902,4.14105 1.29847,1.40108 2.53861,2.36438 2.75586,2.14068 1.54902,-1.59504 0.17666,-8.39035 -1.48686,-7.36224 -0.5104,0.31544 -0.928,-0.12802 -0.928,-0.98548 0,-2.20337 2.28339,-1.93613 3.76793,0.44098 0.78716,1.26045 2.33202,2 4.17786,2 2.75953,0 2.92566,-0.23125 2.87365,-4 -0.0552,-3.99591 -1.37041,-5.33374 -2.45781,-2.5 -0.31659,0.825 -1.31496,1.48569 -2.21862,1.4682 -1.47267,-0.0285 -1.46158,-0.16953 0.10699,-1.36025 0.9625,-0.73064 1.75,-2.06633 1.75,-2.96819 0,-2.05857 0.85684,-2.05675 5.00096,0.0106 3.02891,1.51102 3.15972,1.75897 1.54918,2.93662 -0.96748,0.70744 -1.57143,1.84915 -1.3421,2.53713 0.28327,0.84982 1.15157,0.51627 2.70816,-1.04032 1.26017,-1.26017 2.99463,-2.39445 3.85438,-2.52063 1.8088,-0.26548 2.4011,-2.6717 1.15178,-4.67915 -0.68885,-1.10686 -1.25082,-1.1427 -2.80629,-0.17898 -1.65851,1.02757 -2.17081,0.86036 -3.47847,-1.13538 C 570.17248,601.33361 570.37014,600 572.16667,600 572.625,600 573,600.57857 573,601.28571 c 0,0.70715 0.9,1.28572 2,1.28572 1.1,0 2,-0.3711 2,-0.82467 0,-1.68377 4.07351,3.03864 4.49097,5.20638 0.23842,1.238 0.93923,2.86029 1.55735,3.60508 0.61812,0.7448 0.80427,1.87127 0.41366,2.50329 -0.3906,0.63202 -0.92642,2.78923 -1.1907,4.79381 -0.26429,2.00457 -0.87984,3.79348 -1.36791,3.97535 -0.48806,0.18187 -0.39609,1.24867 0.20439,2.37068 0.69836,1.30491 0.72038,1.81047 0.0611,1.40302 -1.91984,-1.18653 -2.38215,1.51811 -0.51901,3.03632 1.01758,0.82919 1.28764,1.2227 0.60014,0.87445 -1.93949,-0.98243 -1.62487,6.92886 0.34042,8.5599 1.3982,1.16041 1.56126,0.96371 1.3492,-1.62756 -0.38583,-4.71452 -0.0212,-6.64133 1.18109,-6.24058 1.93993,0.64665 1.74244,7.91072 -0.30963,11.38872 -2.24762,3.80943 -4.81108,5.18038 -4.81108,2.573 0,-0.97274 0.50248,-2.2711 1.11663,-2.88525 0.82217,-0.82217 0.56148,-1.7125 -0.98857,-3.37628 -2.67055,-2.86651 -3.6204,-5.81475 -2.29907,-7.13608 0.70356,-0.70356 0.68444,-1.57727 -0.0606,-2.77031 -0.85147,-1.36342 -0.61186,-2.41175 1.10108,-4.81735 1.3842,-1.94392 2.0198,-4.00987 1.72827,-5.61755 -0.2747,-1.51487 0.0861,-2.8507 0.89255,-3.30433 1.11956,-0.62979 1.08791,-1.10733 -0.18306,-2.76147 -1.0613,-1.38127 -1.68167,-1.61329 -2.00529,-0.75 -0.25772,0.6875 -1.14006,1.25 -1.96077,1.25 -1.11525,0 -1.44969,1.07359 -1.32393,4.25 0.2537,6.40797 0.0776,7.75 -1.01721,7.75 -0.55,0 -1,-1.5199 -1,-3.37756 0,-1.85765 -0.66378,-3.92844 -1.47507,-4.60175 -1.21544,-1.00872 -1.68137,-0.77146 -2.64703,1.34794 -0.85621,1.87918 -0.87503,2.9299 -0.0699,3.90007 0.60614,0.73036 1.02911,3.15764 0.93994,5.39396 -0.10253,2.5709 0.42468,4.65286 1.43374,5.66192 1.99457,1.99456 1.45536,10.31397 -0.83232,12.84183 -0.90586,1.00096 -1.21684,2.23906 -0.75152,2.99196 0.43659,0.70642 0.69852,2.53477 0.58207,4.06301 -0.16319,2.14169 0.22585,2.77862 1.69718,2.77862 1.04989,0 2.16791,0.675 2.4845,1.5 0.39152,1.02029 -0.054,1.5 -1.39301,1.5 -1.08272,0 -1.9686,-0.45 -1.9686,-1 0,-0.55 -0.7875,-1.00022 -1.75,-1.0005 -1.46691,-4.1e-4 -1.75,-0.94554 -1.75,-5.84251 0,-3.21311 0.50784,-6.47539 1.12853,-7.24951 1.34523,-1.67776 1.11252,-9.05831 -0.38424,-12.18619 -0.58461,-1.22171 -1.32556,-3.03731 -1.64655,-4.03467 C 565.93543,624.6287 564,625.33189 564,627.63045 c 0,0.83182 0.67411,2.18651 1.49802,3.01042 1.16136,1.16137 1.25125,1.9591 0.4,3.54969 -0.60391,1.12841 -1.09802,3.54314 -1.09802,5.36606 0,1.99656 -0.76221,4.00419 -1.91697,5.04924 -1.82783,1.65416 -2.0139,1.63079 -4.00146,-0.5026 l -2.08448,-2.23744 2.10145,-0.54954 c 1.1558,-0.30225 2.10146,-1.1497 2.10146,-1.88322 0,-0.73352 0.76515,-1.76188 1.70034,-2.28524 1.42644,-0.79827 1.54475,-1.57142 0.73447,-4.79969 -0.64306,-2.56203 -1.50269,-3.80886 -2.57207,-3.73062 -1.1138,0.0815 -1.45196,-0.47234 -1.10305,-1.80656 0.27831,-1.06428 1.08584,-1.70047 1.80712,-1.42368 0.71719,0.2752 1.49925,-0.0368 1.73793,-0.69345 0.32912,-0.90543 0.97217,-0.87512 2.66199,0.12547 1.22541,0.72561 2.44516,1.10215 2.71055,0.83676 C 569.35773,624.97561 565.96974,620 564.82597,620 c -0.5192,0 -0.6203,-0.5625 -0.22466,-1.25 0.39564,-0.6875 0.35516,-0.92047 -0.0899,-0.51771 -0.44511,0.40276 -1.30475,1.7245 -1.91033,2.93719 -0.60557,1.2127 -2.54139,2.57779 -4.30181,3.03355 -1.76042,0.45575 -3.44425,1.22261 -3.74185,1.70412 -0.29759,0.48151 0.36792,2.93041 1.47891,5.44198 1.5349,3.4699 2.43347,4.43102 3.74185,4.00229 0.94702,-0.31031 0.14686,0.47021 -1.77814,1.73451 -1.925,1.26429 -4.2339,2.19296 -5.13088,2.06371 -1.87665,-0.27041 -3.08959,3.29128 -2.23446,6.56131 0.6806,2.60278 3.3653,1.95027 3.3653,-0.81794 0,-1.04115 0.45,-1.89301 1,-1.89301 0.55,0 1,0.9 1,2 0,1.1 0.62686,2 1.39301,2 1.79852,0 2.60699,2.19617 2.60699,7.08179 0,3.66563 -0.79559,4.78928 -2.31512,3.26975 z M 516.75,653.75868 c -2.14189,-3.29032 -2.15881,-3.73927 -0.19503,-5.17521 1.98897,-1.45438 3.37353,-7.44766 3.48456,-15.08347 0.0673,-4.62675 0.29423,-5.48503 0.99163,-3.75 1.13197,2.81619 2.43274,2.85348 4.34417,0.12453 1.10258,-1.57416 2.12521,-1.96572 3.94258,-1.50959 3.35761,0.84271 4.34865,-2.69838 1.54097,-5.50606 -1.60234,-1.60234 -1.7549,-2.27924 -0.77877,-3.45541 0.88001,-1.06034 0.92762,-2.09108 0.17309,-3.74711 -0.68648,-1.50664 -0.70804,-2.87912 -0.0634,-4.03113 0.53763,-0.96069 0.7488,-2.34271 0.46927,-3.07117 -0.27953,-0.72845 0.15284,-2.26828 0.96082,-3.42184 1.07764,-1.53855 1.19663,-2.60644 0.44658,-4.00793 -0.78911,-1.47447 -0.55446,-2.50555 1.02807,-4.51742 2.45768,-3.12442 3.04989,-3.20642 4.65023,-0.64387 1.0495,1.68051 0.99135,1.87299 -0.40406,1.33752 -2.41083,-0.92512 -4.56391,2.414 -3.19993,4.96262 0.73038,1.36473 0.74406,2.65224 0.0437,4.11186 -2.2789,4.74934 -3.2115,8.99802 -2.19765,10.01187 0.68417,0.68417 1.01313,0.67091 1.01313,-0.0409 0,-0.57968 1.15714,-2.30255 2.57142,-3.82858 1.82854,-1.97303 2.26189,-3.08413 1.5,-3.84602 -1.73855,-1.73855 -1.22527,-2.82413 0.8182,-1.7305 1.5218,0.81445 1.9902,0.62664 2.40638,-0.96481 0.29373,-1.12322 0.0177,-1.98272 -0.63962,-1.99142 -2.07793,-0.0275 -3.92885,-1.7348 -3.18522,-2.93803 0.52899,-0.85593 1.24583,-0.70777 2.62812,0.54318 1.04539,0.94608 1.93821,1.31289 1.98404,0.81515 0.0458,-0.49775 0.25747,-2.56678 0.47033,-4.59786 0.21286,-2.03108 -0.23902,-4.89957 -1.00418,-6.37442 -0.76517,-1.47486 -1.13625,-3.34598 -0.82462,-4.15806 0.31162,-0.81207 -0.0485,-1.85662 -0.80017,-2.3212 -1.69394,-1.04691 -1.18247,-1.59966 2.28565,-2.4701 2.66016,-0.66766 2.68992,-0.62234 1.74795,2.66211 -1.25895,4.38973 -1.20967,5.165 0.29172,4.58879 0.92169,-0.35372 1.24004,1.19409 1.21208,5.89301 -0.0357,5.99029 0.60781,7.6867 2.03792,5.37274 1.25708,-2.034 2.71,-0.97285 2.08384,1.52196 -0.44366,1.7677 -0.17701,2.69693 0.8916,3.10699 1.72506,0.66197 2.09246,3.37105 0.45717,3.37105 -0.58706,0 -0.80995,0.81111 -0.49531,1.80246 0.31464,0.99135 -0.0678,2.67757 -0.84993,3.74716 -1.08071,1.47797 -1.14726,2.27575 -0.27728,3.32401 1.41599,1.70617 1.96303,8.4132 0.61841,7.58218 -0.52862,-0.3267 -0.73137,-0.96576 -0.45056,-1.42012 0.28082,-0.45437 -0.16184,-1.08415 -0.98368,-1.39952 -1.68249,-0.64563 -1.92509,-5.07661 -0.59206,-10.8137 0.55761,-2.39983 0.46246,-4.457 -0.27386,-5.92103 C 544.95475,602.5738 543,602.34443 543,605.47568 c 0,1.74665 -0.39238,2.39985 -1.15752,1.92697 -0.77949,-0.48175 -0.98754,-0.0654 -0.63704,1.27494 0.36741,1.40498 -0.29463,2.53817 -2.25107,3.85308 -1.52435,1.02451 -3.48769,3.36449 -4.36296,5.19996 C 532.63754,621.82793 532.63386,622 534.5,622 c 1.74108,0 1.86056,0.92146 0.56226,4.33625 -0.73713,1.9388 -0.53715,2.829 0.93482,4.1611 1.51804,1.37381 1.67131,2.13634 0.80958,4.02763 -0.91146,2.00046 -0.65274,2.71389 1.81518,5.00551 2.4046,2.2328 2.93311,2.39992 3.21214,1.01568 0.18369,-0.91127 0.77994,-1.5082 1.325,-1.32651 0.54506,0.18169 0.94456,0.54409 0.88778,0.80534 -0.87304,4.01665 -1.48458,5.02097 -2.75943,4.53176 -1.64418,-0.63093 -5.62643,1.77081 -4.6143,2.78293 0.36317,0.36317 0.0872,0.66031 -0.61335,0.66031 -0.75057,0 -1.02437,-0.64964 -0.66667,-1.58179 0.33385,-0.86998 0.60699,-2.04313 0.60699,-2.60699 0,-0.56386 0.675,-0.76618 1.5,-0.44959 0.91371,0.35062 1.5,0.002 1.5,-0.89301 C 539,641.66088 538.325,641 537.5,641 c -0.825,0 -1.5,-0.45 -1.5,-1 0,-0.55 -0.45,-1 -1,-1 -0.55,0 -1,0.7125 -1,1.58333 0,0.87084 -0.5625,1.38665 -1.25,1.14626 -0.6875,-0.24039 -1.11011,-1.21128 -0.93913,-2.15752 0.41188,-2.27943 -1.5927,-4.59302 -3.38398,-3.90564 -0.78479,0.30115 -1.42689,0.0494 -1.42689,-0.55944 0,-1.38133 2.26088,-1.44611 3.60375,-0.10324 1.52792,1.52792 4.66229,-1.14688 3.84369,-3.28013 C 533.54899,629.3823 527,629.27974 527,631.60699 c 0,0.97013 -0.55742,1.39309 -1.40654,1.06725 -1.7728,-0.68029 -3.72391,3.80333 -3.99891,9.18943 -0.11116,2.1772 -0.70688,4.56675 -1.32382,5.31012 -0.61694,0.74336 -1.26773,3.13394 -1.44622,5.31239 L 518.5,656.447 Z m 27.569,0.35318 c -0.30051,-1.14915 -1.05772,-1.83038 -1.68269,-1.51384 -0.62497,0.31655 -0.17801,-0.25102 0.99325,-1.26124 1.17126,-1.01023 2.37382,-2.51178 2.67236,-3.33678 0.29853,-0.825 0.5032,0.43201 0.4548,2.79335 -0.0957,4.67202 -1.56185,6.66785 -2.43772,3.31851 z m -21.63733,-3.07005 c -1.1246,-1.13759 -1.42625,-2.08163 -0.79067,-2.47444 1.3255,-0.81921 5.109,1.53071 5.109,3.17318 0,1.8039 -2.19544,1.44866 -4.31833,-0.69874 z M 530,650 c 0,-1.65 -0.3375,-2.94671 -0.75,-2.88158 -0.4125,0.0651 -1.73109,0.0651 -2.93019,0 -1.9284,-0.10474 -2.08227,-0.45989 -1.33227,-3.07499 0.46637,-1.62611 0.72454,-3.76361 0.57372,-4.75 -0.15082,-0.98639 -0.0797,-1.22542 0.15795,-0.53119 0.23768,0.69424 0.91834,0.96177 1.51257,0.59451 0.73128,-0.45195 0.87898,0.33944 0.45707,2.44899 -0.68318,3.41593 0.63595,4.99952 2.72228,3.26802 0.97987,-0.81322 1.63022,-0.72887 2.50475,0.32488 0.80628,0.97151 0.8484,1.62901 0.13268,2.07135 C 532.47185,647.82641 532,649.21648 532,650.55902 532,651.90156 531.55,653 531,653 c -0.55,0 -1,-1.35 -1,-3 z m 64.61905,-1.52381 c -0.89048,-0.89048 -1.6753,-2.2619 -1.74405,-3.04762 C 592.8062,644.64286 592.6375,643.55 592.5,643 c -0.1375,-0.55 -0.30625,-1.37777 -0.375,-1.83948 -0.0688,-0.46172 -1.27537,-1.36364 -2.68139,-2.00426 -1.40601,-0.64062 -2.27945,-1.61285 -1.94098,-2.16051 0.95736,-1.54904 2.49737,-1.17212 2.49737,0.61124 0,0.96986 0.55745,1.39307 1.40604,1.06744 1.46088,-0.56059 4.83202,2.41759 4.47164,3.95041 -0.11316,0.48134 0.14711,2.13362 0.57838,3.67173 0.97433,3.47488 0.28095,4.29758 -1.83701,2.17962 z m -31.88348,-0.074 c -0.32877,-0.32877 -0.35122,-1.24025 -0.0499,-2.02552 0.42038,-1.09548 0.86979,-1.1606 1.9311,-0.27979 0.76077,0.63138 1.38322,1.54287 1.38322,2.02552 0,0.99122 -2.35146,1.19276 -3.26443,0.27979 z M 574,647 c 0,-0.55 0.87344,-1 1.94098,-1 1.06754,0 2.2191,0.45 2.55902,1 0.35052,0.56716 -0.48962,1 -1.94098,1 C 575.15156,648 574,647.55 574,647 Z m -1,-3.55902 c 0,-0.85746 0.45,-1.2809 1,-0.94098 0.55,0.33992 1,1.04148 1,1.55902 0,0.51754 -0.45,0.94098 -1,0.94098 -0.55,0 -1,-0.70156 -1,-1.55902 z M 575.15789,640 c 0,-1.375 0.22698,-1.9375 0.50439,-1.25 0.27741,0.6875 0.27741,1.8125 0,2.5 -0.27741,0.6875 -0.50439,0.125 -0.50439,-1.25 z m -89.97542,-4.63094 c -0.72464,-0.78608 -1.13297,-2.20319 -0.90739,-3.14915 0.31238,-1.30995 0.69268,-1.03136 1.59551,1.16878 1.3793,3.36128 1.16183,3.98715 -0.68812,1.98037 z M 592,634.04194 c 0,-0.60759 0.675,-1.36373 1.5,-1.68031 1.99665,-0.76619 1.89669,-2.35108 -0.24717,-3.9187 -1.22592,-0.89642 -2.12092,-0.96737 -3,-0.2378 C 589.33401,628.96769 589,628.7991 589,627.57278 c 0,-0.91965 -0.73114,-3.08596 -1.62475,-4.81402 -0.89361,-1.72806 -1.96101,-4.31438 -2.37199,-5.74739 -0.67694,-2.36034 -0.47006,-2.62658 2.19898,-2.82996 2.46159,-0.18756 2.84917,0.0813 2.35624,1.63434 -0.86612,2.7289 3.13152,11.24044 4.95134,10.54211 1.10402,-0.42365 1.20542,-1.02142 0.42169,-2.48583 -0.56752,-1.06043 -1.52881,-1.62091 -2.13619,-1.24553 -0.68994,0.4264 -0.81951,0.22166 -0.3453,-0.54563 1.00162,-1.62066 1.26518,-9.02462 0.29998,-8.42712 -0.4125,0.25536 -0.75,-0.19977 -0.75,-1.0114 0,-0.81163 -0.5625,-1.68193 -1.25,-1.93402 -0.98282,-0.36036 -0.98983,-0.73453 -0.0328,-1.75055 0.98599,-1.04674 1.35529,-0.92801 1.94404,0.625 0.39976,1.05447 1.31865,2.516 2.04198,3.24784 0.72333,0.73184 1.04727,1.76405 0.71986,2.2938 -0.3274,0.52976 -0.0514,1.61848 0.61325,2.41938 0.94637,1.14031 0.93849,1.78159 -0.0363,2.9562 -0.83325,1.004 -0.92072,1.91333 -0.26454,2.75 0.54247,0.69167 0.70883,3.47823 0.37245,6.23859 -0.44545,3.65545 -1.07558,5.07805 -2.35791,5.32333 -0.9625,0.1841 -1.75,-0.16239 -1.75,-0.76998 z M 531,632 c 0,-0.55 0.47656,-1 1.05902,-1 0.58246,0 0.7809,0.45 0.44098,1 -0.33992,0.55 -0.81648,1 -1.05902,1 C 531.19844,633 531,632.55 531,632 Z m 55.88152,-0.25 c -0.0652,-0.6875 -0.0454,-1.8125 0.0438,-2.5 0.0893,-0.6875 -0.48426,-1.25 -1.27452,-1.25 -0.79027,0 -1.69587,-0.675 -2.01246,-1.5 -0.38726,-1.00919 0.0465,-1.5 1.32563,-1.5 1.04567,0 2.12084,0.7875 2.38927,1.75 0.26842,0.9625 0.77907,2.7625 1.13477,4 0.38286,1.33197 0.21123,2.25 -0.42065,2.25 -0.58707,0 -1.12071,-0.5625 -1.18587,-1.25 z m -43.80763,-1.16097 c -0.80051,-0.96456 -0.83925,-1.61601 -0.12245,-2.05902 C 543.52815,628.17359 544,626.78352 544,625.44098 544,624.09844 544.47656,623 545.05902,623 c 0.58246,0 0.80465,0.41157 0.49377,0.91459 -0.31089,0.50302 5e-5,1.14975 0.69098,1.43718 0.93209,0.38774 0.82886,0.8721 -0.40008,1.87714 -1.20091,0.98213 -1.39346,1.82423 -0.70031,3.06282 1.16851,2.08801 -0.39672,2.31287 -2.06949,0.2973 z m -33.50929,-2.79612 c -0.90407,-3.22079 -0.46876,-5.00732 0.97728,-4.01086 0.58733,0.40472 0.76718,2.0268 0.41224,3.71795 l -0.62965,3 z m 13.15019,-0.81026 c 0.55422,-2.11935 1.7951,-2.58468 2.7542,-1.03282 0.32287,0.5224 -0.28141,1.41459 -1.34283,1.98265 -1.64998,0.88304 -1.85466,0.7453 -1.41137,-0.94983 z m 14.95188,1.35068 C 536.51603,627.1827 536.93843,626 538.5,626 c 0.825,0 1.5,0.675 1.5,1.5 0,1.56157 -1.1827,1.98397 -2.33333,0.83333 z m 1.9636,-5.85445 c -0.33888,-0.8831 -1.06932,-1.32556 -1.62321,-0.98325 -0.55388,0.34232 -1.00706,0.14585 -1.00706,-0.43661 0,-1.40889 1.31642,-1.3426 2.8,0.14098 0.93333,0.93333 1.2,0.64444 1.2,-1.3 0,-1.375 -0.48921,-2.98921 -1.08713,-3.58713 -0.7275,-0.7275 -0.75013,-1.29541 -0.0684,-1.71673 1.731,-1.06982 4.01801,3.27138 3.24538,6.16037 -0.82858,3.09817 -2.59429,3.97724 -3.45956,1.72237 z m -34.02328,-2.06067 c -0.92825,-2.41899 -0.73809,-2.7719 0.80398,-1.4921 1.08096,0.89712 1.58596,0.88788 2.15911,-0.0395 0.44667,-0.72273 -0.20126,-1.97929 -1.60794,-3.11835 -1.99017,-1.61155 -2.17018,-2.20548 -1.15911,-3.82448 0.65834,-1.05415 1.19697,-3.47119 1.19697,-5.37119 0,-3.78505 1.21876,-5.24829 2.75827,-3.31158 1.19935,1.50879 0.74805,5.07022 -0.70381,5.55417 -1.59059,0.5302 -1.27411,2.77529 0.89371,6.34 1.88824,3.10494 1.87872,5.4739 -0.0173,4.30211 -0.51199,-0.31643 -0.9309,0.12623 -0.9309,0.98369 0,2.03619 -2.60963,2.01868 -3.39301,-0.0228 z m 44.93572,-5.34911 c -0.31644,-0.512 -0.11799,-1.21356 0.44098,-1.55902 0.55897,-0.34546 1.01631,0.0734 1.01631,0.9309 0,1.75653 -0.60006,2.01516 -1.45729,0.62812 z M 485,613.05902 c 0,-0.51754 0.375,-1.17275 0.83333,-1.45601 0.45834,-0.28327 0.83334,0.14017 0.83334,0.94098 0,0.8008 -0.375,1.45601 -0.83334,1.45601 C 485.375,614 485,613.57656 485,613.05902 Z M 553.5,612 c 0.33992,-0.55 0.81648,-1 1.05902,-1 0.24254,0 0.44098,0.45 0.44098,1 0,0.55 -0.47656,1 -1.05902,1 -0.58246,0 -0.7809,-0.45 -0.44098,-1 z m 3.75,-2.73064 c -0.6875,-0.23982 -1.25,-1.27197 -1.25,-2.29368 0,-1.0217 -0.45,-2.13576 -1,-2.47568 -1.76556,-1.09118 -1.06744,-4.2491 1.06248,-4.80609 1.83214,-0.47911 1.99026,-0.21052 1.41582,2.40491 -0.50963,2.32033 -0.17237,3.32832 1.59152,4.75663 1.70971,1.38444 1.90668,1.93487 0.83418,2.33116 -0.7722,0.28532 -1.9665,0.32256 -2.654,0.0828 z M 586.15789,608 c 0,-1.375 0.22698,-1.9375 0.50439,-1.25 0.27741,0.6875 0.27741,1.8125 0,2.5 -0.27741,0.6875 -0.50439,0.125 -0.50439,-1.25 z m -2.89308,-2.66435 c -0.99531,-2.0363 -0.96253,-2.99213 0.19284,-5.6229 0.50974,-1.16068 0.21653,-2.41529 -0.83637,-3.57874 -2.00006,-2.21003 -2.01897,-2.87917 -0.13467,-4.76347 1.31547,-1.31548 1.4162,-1.13459 0.875,1.57142 -0.46727,2.33632 -0.25335,3.05804 0.9064,3.05804 0.83491,0 1.80175,-0.73941 2.14854,-1.64313 0.94721,-2.46838 1.77749,-0.96987 2.12883,3.84214 0.27647,3.78673 0.15455,4.08459 -1.01968,2.49115 -1.52677,-2.07184 -2.09292,-1.41434 -2.35013,2.72933 -0.22936,3.69498 -0.77423,4.24139 -1.91076,1.91616 z m 5.46025,-0.12896 c 0.75642,-2.05224 2.38155,-3.25884 3.47719,-2.58169 1.43779,0.8886 0.8399,2.03477 -1.65425,3.17117 -2.13679,0.97359 -2.37113,0.89781 -1.82294,-0.58948 z m 6.60827,-1.6627 c 0,-0.80081 0.38234,-1.21971 0.84965,-0.9309 0.4673,0.28881 0.59075,0.94401 0.27431,1.45601 -0.80862,1.30838 -1.12396,1.16106 -1.12396,-0.52511 z m -3.22438,-3.72975 c -0.48077,-1.27283 -0.64431,-2.70205 -0.36342,-3.17604 0.28088,-0.474 -0.0546,-1.21118 -0.74553,-1.6382 -0.69093,-0.42702 -0.93352,-1.29856 -0.53909,-1.93675 0.539,-0.87212 1.08657,-0.85377 2.20433,0.0739 1.19152,0.98887 1.66183,0.95168 2.36562,-0.18707 0.57557,-0.93129 0.39367,-1.69261 -0.52758,-2.20817 -1.51342,-0.84695 -1.26293,-6.45396 0.42961,-9.61651 1.13913,-2.12847 -1.25311,-3.916 -4.88211,-3.64799 -1.73272,0.12797 -2.65781,0.96082 -3.16224,2.84696 -0.39833,1.48941 -0.28031,2.93351 0.26739,3.27201 0.53923,0.33326 0.7599,1.18058 0.49039,1.88293 -0.26952,0.70234 -0.0806,1.68643 0.41984,2.18686 0.5465,0.5465 0.0952,1.60739 -1.12994,2.65642 -2.00343,1.71539 -2.02898,1.68795 -1.43222,-1.53802 0.40635,-2.1967 0.10283,-3.94697 -0.9164,-5.28456 -1.49326,-1.95967 -1.52525,-1.94959 -1.58621,0.5 -0.058,2.32929 -0.13849,2.36857 -1.17929,0.57524 -0.92755,-1.59819 -0.68485,-2.29654 1.43041,-4.11602 1.86131,-1.60103 2.54749,-3.17083 2.54749,-5.82802 0,-2.00023 -0.405,-3.88708 -0.9,-4.193 -1.35083,-0.83486 -1.0829,-3.4428 0.35,-3.40678 1.85328,0.0466 5.42028,5.24515 3.93799,5.73925 -0.65339,0.2178 -1.18799,1.01937 -1.18799,1.78128 0,0.82052 0.61153,1.15061 1.5,0.80968 0.825,-0.31659 1.5,-1.20246 1.5,-1.96862 0,-0.76615 0.45,-1.39301 1,-1.39301 0.55,0 1,0.675 1,1.5 0,0.825 0.78878,2.28878 1.75284,3.25284 1.40779,1.40779 1.72663,3.34517 1.61971,9.84206 -0.0732,4.44907 -0.57619,8.94779 -1.11771,9.99716 -0.54152,1.04937 -0.79664,2.4292 -0.56693,3.0663 0.22972,0.6371 -0.0599,1.45351 -0.64358,1.81424 -0.58369,0.36074 -1.4546,-0.38552 -1.93538,-1.65836 z m -40.48171,0.47967 c -0.31248,-0.31249 0.31855,-1.81342 1.40231,-3.3354 2.04972,-2.87857 2.65506,-5.49965 1.03955,-4.50122 -0.512,0.31644 -1.21356,0.11799 -1.55902,-0.44098 -0.36036,-0.58308 0.41923,-1.01631 1.82886,-1.01631 2.22345,0 2.44291,-0.37919 2.30902,-3.98946 -0.0886,-2.38992 0.35322,-4.18158 1.10204,-4.46862 1.54047,-0.59049 1.66512,3.23602 0.2285,7.01462 -0.59652,1.56897 -0.65503,3.15617 -0.14065,3.8151 0.93314,1.19535 -5.15347,7.97941 -6.21061,6.92227 z M 578.05062,598 c -2.09792,-3.85112 -5.30605,-6.83921 -6.74853,-6.28568 C 570.56553,591.99696 570,591.51603 570,590.60699 c 0,-1.78559 1.54043,-2.1596 2.5,-0.60699 0.93407,1.51136 2.5,1.19817 2.5,-0.5 0,-0.825 0.675,-1.5 1.5,-1.5 0.825,0 1.5,-0.525 1.5,-1.16667 0,-0.64166 0.30068,-0.86599 0.66817,-0.49849 0.3675,0.3675 0.096,1.73733 -0.60337,3.04408 -1.07067,2.00057 -1.00517,2.78245 0.41462,4.94933 0.92739,1.41537 1.51672,3.38304 1.30963,4.37258 -0.32152,1.53625 -0.57556,1.43383 -1.73843,-0.70083 z m -7.64298,-1.14943 c -0.95852,-1.55093 1.88129,-1.99021 3.35285,-0.51865 1.42476,1.42476 1.36315,1.5531 -0.672,1.39979 -1.23232,-0.0928 -2.4387,-0.48934 -2.68085,-0.88114 z m -2.32727,-2.8009 c -0.72828,-0.4501 -1.1516,-1.33598 -0.94072,-1.96863 0.27441,-0.82321 0.92079,-0.75733 2.27338,0.23171 2.05028,1.4992 0.8384,3.07871 -1.33266,1.73692 z m 22.3995,-7.08224 c -0.35099,-0.56791 -0.99842,-2.28872 -1.43874,-3.82402 -0.67736,-2.36182 -0.51441,-2.77037 1.05877,-2.65447 2.14326,0.1579 3.88212,1.51106 1.94177,1.51106 -0.90186,0 -1.11059,0.90538 -0.69167,3 0.61174,3.05872 0.27496,3.82022 -0.87013,1.96743 z m -19.87168,-1.46317 c -1.0405,-0.78767 -2.34252,-1.58237 -2.8934,-1.766 -0.64903,-0.21634 -0.61079,-1.06407 0.10864,-2.40833 0.75518,-1.41107 0.80512,-3.1383 0.15617,-5.40108 -0.69683,-2.42969 -0.62048,-3.54807 0.28317,-4.14804 0.91201,-0.60551 0.61667,-1.34183 -1.12355,-2.80113 C 564.80734,567.02424 564.80466,567 566.9206,567 c 1.17819,0 2.43431,0.7875 2.79137,1.75 0.35707,0.9625 1.5368,2.5375 2.62163,3.5 1.08483,0.9625 1.48012,1.75 0.87843,1.75 -0.6017,0 -1.4018,-0.49804 -1.77801,-1.10676 -0.47683,-0.77153 -0.94441,-0.69581 -1.54371,0.25 -1.47726,2.33142 -0.98236,3.61684 1.64657,4.27666 2.39257,0.6005 2.44945,0.76152 1,2.83091 C 570.60389,583.01053 570.59416,584 572.5,584 c 0.825,0 1.5,0.675 1.5,1.5 0,1.8571 -0.9427,1.85828 -3.39181,0.004 z M 544,584.52653 c 0,-0.16308 1.05,-0.9845 2.33333,-1.82537 1.95666,-1.28205 2.33334,-1.30061 2.33334,-0.11501 0,0.77762 -0.2625,1.44828 -0.58334,1.49036 -0.32083,0.0421 -1.37083,0.22726 -2.33333,0.41152 -0.9625,0.18425 -1.75,0.20157 -1.75,0.0385 z m 31.71871,-0.14115 c -0.33804,-0.33804 0.0743,-1.66601 0.91627,-2.95104 0.88691,-1.3536 1.25732,-3.19831 0.88056,-4.38538 -0.75187,-2.36893 0.31675,-2.62329 2.94549,-0.70112 1.77619,1.29879 1.76495,1.42618 -0.30887,3.5 C 578.96847,581.03153 578,582.675 578,583.5 c 0,1.53227 -1.17743,1.98924 -2.28129,0.88538 z m 2.69722,-12.74386 c -0.67586,-1.76127 1.32578,-5.91918 2.50013,-5.1934 0.99664,0.61596 0.18823,5.36939 -1.04252,6.13004 -0.48822,0.30173 -1.14414,-0.11975 -1.45761,-0.93664 z m -5.78041,-4.71394 c -0.65455,-3.27272 1.81773,-8.38352 3.5404,-7.31886 0.52643,0.32536 1.53352,-0.19668 2.23797,-1.16007 0.95123,-1.30088 1.47561,-1.43646 2.03778,-0.52685 0.46995,0.7604 -0.42005,2.19986 -2.34736,3.79652 -1.82428,1.51131 -3.10431,3.51846 -3.10431,4.8677 0,3.52108 -1.68004,3.76377 -2.36448,0.34156 z M 594,557 c 0,-1.1 0.45,-2 1,-2 0.55,0 1,0.9 1,2 0,1.1 -0.45,2 -1,2 -0.55,0 -1,-0.9 -1,-2 z m -65.34529,111.25 c -0.26404,-0.9625 -0.76476,-3.4375 -1.1127,-5.5 -0.64731,-3.83699 -1.14377,-4.29039 -3.23922,-2.95829 -0.78959,0.50194 -0.87992,1.26281 -0.26532,2.23468 1.52576,2.41267 1.0888,3.24274 -0.74283,1.41111 -1.32349,-1.32349 -1.80452,-1.40787 -2.1482,-0.37683 -0.42717,1.28153 5.38867,6.93933 7.13317,6.93933 0.47034,0 0.63913,-0.7875 0.3751,-1.75 z m -45.67002,-24 c -0.0363,-1.77777 -1.74659,-3.44427 -2.41871,-2.35676 -0.37621,0.60872 -0.4059,1.55676 -0.066,2.10676 0.72089,1.16642 2.50707,1.34614 2.48469,0.25 z m -4.26108,-5.42082 c -0.64395,-0.39798 -1.49645,-0.19674 -1.89443,0.44721 -0.39798,0.64395 -0.19674,1.49645 0.44721,1.89443 0.64395,0.39798 1.49645,0.19674 1.89443,-0.44721 0.39798,-0.64395 0.19674,-1.49645 -0.44721,-1.89443 z m -17.9401,-7.80422 c -0.71848,-1.15047 -1.60413,-1.60434 -2.12134,-1.08713 -1.14982,1.14982 0.0401,3.06217 1.90532,3.06217 1.19303,0 1.23124,-0.34942 0.21602,-1.97504 z M 464,627.42725 c 0,-0.73033 0.7875,-1.7722 1.75,-2.31528 1.31472,-0.74181 1.46579,-1.27467 0.60736,-2.14233 -1.27039,-1.28405 -5.35736,0.29169 -5.35736,2.06554 0,0.53065 -0.53577,0.85232 -1.19061,0.71482 -0.65484,-0.1375 -1.37309,0.59079 -1.59613,1.61843 -0.25527,1.17615 0.003,1.61581 0.69767,1.18662 0.60676,-0.375 1.37757,0.0332 1.71292,0.90709 0.47154,1.22884 0.92317,1.32876 1.99293,0.44094 C 463.37755,629.2717 464,628.15757 464,627.42725 Z M 471.24475,620.5 c 0.26285,-1.375 0.14541,-2.5 -0.26098,-2.5 -1.33558,0 -3.16977,2.89002 -2.51084,3.9562 1.09732,1.7755 2.27202,1.15836 2.77182,-1.4562 z M 566,598.44098 c 0,-1.65007 -1.58044,-1.92885 -2.5,-0.44098 -0.81551,1.31952 0.38021,3.19207 1.5691,2.45729 0.51199,-0.31643 0.9309,-1.22377 0.9309,-2.01631 z"
       id="path3881"
       inkscape:connector-curvature="0" />
    <path
       style="fill:#acb3de"
       d="m 594,851.34524 c -3.97367,-1.5953 -254.84238,-146.62153 -259.4271,-149.9738 -2.1599,-1.57929 -4.9724,-4.85472 -6.25,-7.27872 L 326,689.68543 V 535.28554 c 0,-110.69116 0.31721,-155.65965 1.12053,-158.84993 0.65682,-2.60847 2.62252,-6.083 4.75,-8.39601 2.68483,-2.91895 36.92348,-23.25573 131.5513,-78.13769 73.49089,-42.62303 129.62451,-74.57429 131.92341,-75.09081 8.37958,-1.88277 -3.78436,-8.56052 221.65476,121.68385 44.31398,25.6018 50.86749,29.69638 53.5,33.42638 l 3,4.2507 0.26411,154.66398 c 0.18996,111.24406 -0.0504,156.1858 -0.85635,160.08476 -1.88137,9.10204 -4.4729,10.99306 -55.90776,40.7954 -25.575,14.81864 -83.16226,48.2672 -127.97169,74.33013 -80.90114,47.05529 -81.5139,47.38895 -87.5,47.64414 -3.31557,0.14135 -6.70331,-0.014 -7.52831,-0.3452 z m 82.10028,-180.84887 c 39.26985,-21.27473 72.01421,-39.27026 72.76525,-39.99009 1.14671,-1.09904 0.98646,-1.5507 -1,-2.81844 -10.56291,-6.74116 -143.03023,-82.51236 -145.20829,-83.05902 -3.33941,-0.83814 -9.10054,1.59377 -22.28201,9.40578 -8.33698,4.94092 -24.15748,14.15451 -30.87523,17.98123 -1.65,0.9399 -8.61483,4.98601 -15.47739,8.99135 -6.86256,4.00533 -14.06256,8.16802 -16,9.25043 -1.93744,1.0824 -9.82261,5.68782 -17.52261,10.23426 -18.5583,10.95769 -28.85741,16.92781 -42.27915,24.50813 -3.40842,1.925 -6.20111,3.725 -6.20598,4 -0.005,0.275 2.57728,1.89044 5.73813,3.58988 3.16085,1.69943 8.447,4.57279 11.747,6.38525 11.89076,6.53076 17.1165,9.36672 24,13.02459 3.85,2.04587 8.8,4.73903 11,5.9848 2.2,1.24577 7.825,4.2973 12.5,6.78119 4.675,2.4839 10.75,5.76274 13.5,7.28633 2.75,1.52359 7.475,4.01149 10.5,5.52866 3.025,1.51718 7.075,3.74094 9,4.9417 1.925,1.20076 8.45,4.80599 14.5,8.01162 6.05,3.20563 13.25,7.06929 16,8.58592 15.27912,8.42644 21.06318,11.03018 23.10028,10.39877 0.60516,-0.18757 33.23016,-17.74762 72.5,-39.02234 z"
       id="path3879"
       inkscape:connector-curvature="0" />
    <path
       style="fill:#a3abda"
       d="M 594.5,851.32218 C 593.4,851.0127 567.57508,836.37006 537.11128,818.78298 387.46196,732.38885 336.23297,702.63689 333.35237,700.44713 c -1.7312,-1.31601 -4.0937,-4.34706 -5.25,-6.73567 L 326,689.36855 326.0239,535.43428 c 0.0138,-88.91058 0.4085,-155.5928 0.93445,-157.86058 2.3088,-9.95509 -3.97882,-5.91186 133.57994,-85.89805 C 530.36721,251.07226 589.075,217.15064 591,216.29428 c 5.1753,-2.3023 13.00498,-2.01351 18.16963,0.67017 2.3817,1.23759 45.73037,26.11907 96.33037,55.29218 50.6,29.17311 106.4,61.34266 124,71.48789 17.6,10.14524 33.68273,19.58593 35.73939,20.97933 2.2906,1.55189 4.71923,4.53616 6.26839,7.70252 l 2.52898,5.16906 -0.26838,155.95228 c -0.29594,171.96452 0.18583,159.48679 -6.39522,165.63763 -1.58024,1.47694 -60.63166,36.28628 -131.22537,77.3541 -123.8589,72.05477 -128.54993,74.6806 -134,75.0071 -3.10629,0.18609 -6.54779,0.0851 -7.64779,-0.22436 z m 14,-143.14356 c 1.65,-0.99764 7.05,-3.98756 12,-6.64426 4.95,-2.6567 30.15,-16.302 56,-30.3229 25.85,-14.0209 50.825,-27.54038 55.5,-30.04329 18.24506,-9.76806 20.14103,-11.37185 16.27292,-13.76509 -0.97511,-0.60331 -13.58542,-7.91581 -28.02292,-16.25 -52.563,-30.34253 -79.11977,-45.71633 -96.75,-56.0089 -16.14903,-9.42783 -18.51416,-10.51541 -23,-10.57631 -4.77042,-0.0648 -6.99736,1.09605 -48.5,25.28088 -23.925,13.94181 -56.43277,32.84181 -72.23948,42 -15.80672,9.15819 -28.74422,17.11507 -28.75,17.68196 -0.006,0.5669 3.25198,2.69962 7.23948,4.73939 3.9875,2.03978 9.95,5.21699 13.25,7.06047 6.49793,3.62995 39.95367,21.82064 50.5,27.45806 3.575,1.91098 11.9,6.41892 18.5,10.01764 6.6,3.59873 17.175,9.32207 23.5,12.71854 6.325,3.39647 16.04393,8.67165 21.59761,11.72262 13.48661,7.40901 17.40794,8.25332 22.90239,4.93119 z"
       id="path3877"
       inkscape:connector-curvature="0" />
    <path
       style="fill:#9da6d8"
       d="m 593.8642,850.61321 c -1.99969,-0.71446 -21.79969,-11.7899 -44,-24.61209 C 388.90851,733.03821 336.15775,702.47883 333.83605,700.85247 c -1.46518,-1.02636 -3.83152,-4.20911 -5.25854,-7.07277 l -2.59459,-5.20666 0.22584,-107.53652 c 0.12421,-59.14509 0.46555,-129.88601 0.75854,-157.20206 l 0.5327,-49.66555 3,-4.25073 C 333.18795,366.10959 345.20183,358.86994 446,300.31701 607.1069,206.73116 592.25584,215 599.23168,215 c 3.44669,0 7.18808,0.67228 9.06798,1.62939 1.76019,0.89617 46.17534,26.39728 98.70034,56.66913 52.525,30.27186 109.45,63.07821 126.5,72.90301 33.00058,19.01608 37.48909,22.41201 39.5673,29.93594 0.92899,3.36331 1.05745,39.82019 0.56087,159.16799 -0.62113,149.28122 -0.71173,154.93731 -2.53882,158.5 -1.04209,2.032 -2.95101,4.6544 -4.24203,5.82756 C 864.28897,701.9578 615.02765,847.1687 608.5,850.1371 c -4.68456,2.13027 -9.56187,2.28893 -14.6358,0.47611 z m 21.92856,-145.02706 c 10.14509,-5.59579 99.5585,-54.06956 121.20714,-65.71014 6.87494,-3.69669 12.9437,-7.42482 13.48612,-8.28473 0.72546,-1.15009 0.46108,-2.06792 -0.9999,-3.4713 C 748.39375,627.07068 735.8,619.4793 721.5,611.25023 c -14.3,-8.22906 -36.2375,-20.8768 -48.75,-28.10608 -59.05239,-34.1184 -67.40484,-38.84841 -69.58141,-39.40418 -1.28227,-0.32742 -4.20727,-0.0245 -6.5,0.6731 -2.29272,0.69762 -23.29359,12.40996 -46.66859,26.02742 -23.375,13.61745 -55.42548,32.25162 -71.22329,41.40926 -15.79781,9.15764 -28.93564,17.18526 -29.19517,17.83916 -0.43202,1.08846 2.04839,2.59895 21.41846,13.04312 15.54362,8.38097 23.8873,12.93963 27.5,15.02491 2.2,1.26985 5.35,2.98414 7,3.80953 1.65,0.8254 5.025,2.64258 7.5,4.0382 2.475,1.39561 9,4.9141 14.5,7.81886 5.5,2.90476 14.5,7.76811 20,10.80744 5.5,3.03933 13.825,7.53426 18.5,9.98874 4.675,2.45447 13.225,7.0769 19,10.27205 11.14633,6.16696 15.0956,7.61604 18.79276,6.8955 1.26102,-0.24575 6.66102,-2.85625 12,-5.80111 z"
       id="path3875"
       inkscape:connector-curvature="0" />
    <path
       style="fill:#828ece"
       d="m 595.18562,850.86454 c -1.8229,-0.5253 -20.9479,-11.12943 -42.5,-23.56473 C 513.00322,804.40353 352.95616,711.90218 341,704.95326 c -8.1887,-4.75927 -11.76122,-8.50245 -13.42608,-14.06748 -1.0663,-3.56425 -1.23186,-33.23242 -0.88386,-158.38578 0.47051,-169.21465 0.0647,-159.01336 6.57231,-165.21909 1.7807,-1.6981 60.83763,-36.53913 131.23763,-77.42453 l 128,-74.33707 7,0.002 7,0.002 79.5,45.90146 c 43.725,25.2458 101.775,58.73923 129,74.42984 30.83199,17.76943 50.85717,29.92051 53.09867,32.21975 1.97927,2.03025 4.04252,5.43999 4.585,7.57719 1.28379,5.05776 0.52479,310.35204 -0.78441,315.51123 -0.52101,2.05316 -2.57102,5.25653 -4.6644,7.28865 -2.05417,1.99405 -24.88486,15.90549 -50.73486,30.9143 -25.85,15.00881 -83.02957,48.24736 -127.06571,73.86346 -44.03614,25.61609 -81.83614,47.06625 -84,47.66702 -4.5656,1.26759 -5.75165,1.26389 -10.24867,-0.032 z m 9.49928,-79.92235 c 6.39106,-2.40153 177.65192,-102.59494 179.10808,-104.78431 0.85676,-1.28816 1.72889,-4.66316 1.93805,-7.5 0.58225,-7.89677 -1.24963,-9.9088 -17.34021,-19.04541 -7.63995,-4.33814 -15.24082,-9.22525 -16.89082,-10.86024 -1.65,-1.63499 -13.35,-8.92124 -26,-16.19167 -12.65,-7.27044 -34.7,-19.98096 -49,-28.24561 -55.65905,-32.16804 -71.06013,-40.9805 -72.63245,-41.56015 -3.8326,-1.41292 -12.49488,2.84511 -49.36755,24.26707 -21.45,12.46184 -53.175,30.89111 -70.5,40.95395 -17.325,10.06284 -33.06339,19.47239 -34.97421,20.91012 -1.91081,1.43773 -9.78581,6.26634 -17.5,10.73024 C 416.22089,648.47253 413,651.66873 413,658 c 0,8.32502 -7.80613,3.35882 130.5,83.02314 59.31549,34.16572 55.21698,32.16157 61.1849,29.91905 z"
       id="path3873"
       inkscape:connector-curvature="0" />
    <path
       style="fill:#7a86ca"
       d="M 593.26502,849.97439 C 588.96423,848.24476 335.14691,701.387 332.60877,699.15965 331.56859,698.24684 329.89098,695.7 328.88073,693.5 c -1.75698,-3.82616 -1.83776,-10.73139 -1.85877,-158.88398 -0.0163,-115.10918 0.27744,-155.88328 1.14389,-158.77526 0.64122,-2.1402 2.55372,-5.44225 4.25,-7.33789 3.47161,-3.87962 253.93272,-149.81467 261.48196,-152.35652 8.97477,-3.02182 -9.47508,-13.03582 218.60219,118.65031 28.05,16.19537 52.19888,30.29464 53.66417,31.33171 1.4653,1.03708 3.60967,3.83873 4.76528,6.2259 l 2.10111,4.34032 -0.26528,156.9027 c -0.29295,173.26934 0.24698,159.3615 -6.426,165.52536 -1.56161,1.44246 -18.36428,11.6201 -37.33928,22.61698 -18.975,10.99688 -75.675,43.96575 -126,73.26415 -50.325,29.2984 -92.94805,53.88326 -94.71788,54.63302 -3.60373,1.52666 -11.61275,1.70671 -15.0171,0.33759 z m 97.06839,-127.39918 c 45.74162,-26.5566 85.49971,-49.72061 88.3513,-51.47557 4.06654,-2.50268 5.55082,-4.14951 6.88233,-7.63602 1.84581,-4.83317 1.50352,-10.1808 -0.88498,-13.82611 -0.77515,-1.18302 -8.0184,-5.93239 -16.09612,-10.55416 -14.48112,-8.28555 -17.88793,-11.12228 -15.33956,-12.77266 0.68849,-0.44588 7.08951,-4.00873 14.22449,-7.91744 7.13498,-3.90872 13.88539,-8.32912 15.00091,-9.82313 2.00654,-2.68734 2.03102,-3.94839 2.29056,-117.99569 l 0.26235,-115.27932 -43.76235,-24.34215 C 717.19306,337.56478 676.24332,314.77338 650.26294,300.30541 624.28255,285.83743 602.57169,274 602.01657,274 c -0.67277,0 -1.09387,44.5802 -1.26293,133.70257 L 600.5,541.40515 596,543.03701 c -2.475,0.89753 -22.5,12.11324 -44.5,24.92381 -22,12.81056 -53.95,31.39832 -71,41.30614 -17.05,9.90782 -32.16784,18.98828 -33.59519,20.1788 -1.42736,1.19053 -8.76059,5.69514 -16.29607,10.01026 -7.53549,4.31512 -14.56833,8.94844 -15.62853,10.29627 -4.39608,5.58871 -3.28037,14.43215 2.35099,18.63446 2.98028,2.224 36.87128,21.93867 134.91124,78.47899 22.95834,13.24024 43.20834,24.46126 45,24.9356 1.86628,0.49409 4.68123,0.47723 6.59097,-0.0395 1.83337,-0.49605 40.75837,-22.63004 86.5,-49.18664 z"
       id="path3871"
       inkscape:connector-curvature="0" />
    <path
       style="fill:#6472c2"
       d="m 592.5,849.13582 c -2.2,-1.00113 -26.05,-14.55433 -53,-30.11822 -26.95,-15.56388 -83.65,-48.31359 -126,-72.77712 -42.35,-24.46354 -78.29424,-45.66296 -79.8761,-47.10982 -1.58185,-1.44686 -3.70947,-4.43066 -4.72804,-6.63066 -1.77712,-3.8384 -1.85184,-10.18109 -1.84945,-157 0.002,-101.06669 0.35102,-154.52745 1.0293,-157.5 2.25242,-9.87117 -4.10222,-5.79278 134.09401,-86.06126 70.48762,-40.94131 129.09778,-74.80603 130.2448,-75.25494 3.56909,-1.39684 12.23345,-0.91586 15.74701,0.87416 2.89964,1.47726 132.60458,76.12414 225.33847,129.68523 17.05,9.84771 32.22951,19.07314 33.73225,20.50095 6.19733,5.88835 5.85551,-4.35498 5.54801,166.25586 L 872.5,689.5 l -2.14359,4 c -1.17898,2.2 -2.97898,4.73318 -4,5.62928 -2.33447,2.04886 -252.41749,147.53451 -257.85641,150.00782 -5.09341,2.31619 -10.90838,2.31573 -16,-10e-4 z M 692.70217,721.87823 c 47.73881,-27.70803 88.3394,-51.77551 90.22354,-53.48331 3.024,-2.74097 3.47647,-3.80683 3.85859,-9.08966 0.60721,-8.39452 -0.95935,-10.88344 -10.27299,-16.32157 -18.7127,-10.92613 -22.90254,-13.54537 -23.1686,-14.48369 -0.15595,-0.55 6.11564,-4.44303 13.93687,-8.65118 7.87212,-4.23553 15.11326,-8.84399 16.22042,-10.32313 1.96961,-2.63135 2.00398,-4.43879 2.26224,-118.94405 l 0.26224,-116.27211 -91.96071,-51.15476 C 643.48537,295.01965 601.62986,272 601.05152,272 c -0.72271,0 -1.08924,19.3093 -1.17213,61.75 -0.0663,33.9625 -0.17884,94.23991 -0.25,133.94981 -0.0837,46.68995 -0.48271,72.52264 -1.12939,73.11351 -0.55,0.50255 -2.35,1.37044 -4,1.92865 -1.65,0.55822 -22.125,12.15323 -45.5,25.76669 -23.375,13.61347 -55.325,32.17525 -71,41.24842 -15.675,9.07316 -29.625,17.517 -31,18.76407 -1.375,1.24708 -8.96636,5.99268 -16.8697,10.54579 -15.79754,9.10096 -18.12028,11.50136 -18.12656,18.73272 -0.006,6.72439 2.09063,9.52363 11.23313,14.99858 16.60408,9.94329 160.24057,92.83129 169.29179,97.69284 3.82561,2.0548 5.9398,2.56593 9.17351,2.21778 3.2986,-0.35512 22.86603,-11.28507 91,-50.83063 z"
       id="path3869"
       inkscape:connector-curvature="0" />
    <path
       style="fill:#5e6dc0"
       d="m 595.5,850.11035 c -1.65,-0.43218 -19.2,-10.14729 -39,-21.58914 -19.8,-11.44184 -76.5,-44.1901 -126,-72.7739 -49.5,-28.58379 -91.68366,-53.04915 -93.74146,-54.36746 -2.05781,-1.31831 -4.98281,-4.27517 -6.5,-6.57081 L 327.5,690.63515 327.76048,534.56758 c 0.28478,-170.63512 -0.059,-161.09017 6.00727,-166.79842 C 335.27049,366.35511 394.1,331.74107 464.5,290.84908 L 592.5,216.5 h 7 7 l 79.5,45.91328 c 43.725,25.2523 101.775,58.75555 129,74.45168 27.225,15.69612 50.91261,30.00179 52.63914,31.79038 1.99782,2.06963 3.59378,5.1471 4.38959,8.46442 1.82714,7.61635 0.37698,310.97215 -1.50764,315.38024 -0.70543,1.65 -2.79877,4.39529 -4.65185,6.10065 -1.85308,1.70536 -24.29424,15.24117 -49.86924,30.07958 -25.575,14.8384 -82.99293,48.20468 -127.5954,74.14729 -85.22713,49.57154 -84.86679,49.38815 -92.9046,47.28283 z M 608,771.47671 c 8.54852,-4.38509 173.8999,-100.99267 175.63988,-102.61869 2.77973,-2.59769 4.77474,-9.83435 3.93911,-14.28865 -1.04643,-5.57798 -4.42403,-8.54072 -19.45944,-17.06937 -7.7569,-4.4 -13.9596,-8.45 -13.78376,-9 0.17583,-0.55 6.58471,-4.38901 14.24195,-8.53112 12.73527,-6.88904 14.11445,-7.90961 16.17644,-11.97037 l 2.25417,-4.43924 L 786.75418,488.71163 786.5,373.86399 702,326.82751 c -46.475,-25.87006 -88.39669,-49.12695 -93.15932,-51.68199 l -8.65931,-4.64552 -2.34069,2.09749 C 596.55331,273.75111 574.125,286.42465 548,300.76091 c -26.125,14.33625 -67.075,36.85486 -91,50.04134 l -43.5,23.97542 V 489.13884 603.5 l 2.18098,3.5 c 1.69351,2.71771 5.43731,5.26971 16.75,11.41776 8.01296,4.35477 14.56902,8.22253 14.56902,8.59502 0,1.32925 -3.6742,3.84532 -16,10.9567 -14.45876,8.342 -17.61529,11.01443 -19.18061,16.23899 -1.46188,4.87934 0.0767,10.38095 3.90829,13.97512 2.64414,2.4803 34.84027,21.33917 124.27232,72.79249 22.275,12.81557 43.59773,25.09371 47.38384,27.28476 10.36744,5.99969 14.06488,6.57645 20.61616,3.21587 z"
       id="path3867"
       inkscape:connector-curvature="0" />
    <path
       style="fill:#5666bc"
       d="m 596.5,850.10178 c -1.65,-0.41497 -4.125,-1.34575 -5.5,-2.0684 -7.78993,-4.09415 -252.94262,-145.91571 -256.27264,-148.2545 -1.52495,-1.07102 -3.77495,-3.82191 -5,-6.11309 L 327.5,689.5 l 0.33743,-156 c 0.32751,-151.41218 0.39394,-156.12011 2.25885,-160.084 1.05677,-2.24619 2.92993,-4.98797 4.16256,-6.09283 2.69295,-2.4138 252.80125,-147.61468 258.02726,-149.79824 4.82734,-2.017 10.30366,-1.89509 15.2139,0.33867 3.59574,1.63577 33.01716,18.53737 203.5,116.9038 27.225,15.70848 51.10908,29.61991 53.07573,30.91429 1.96665,1.29439 4.6661,4.25802 5.99878,6.58587 l 2.42305,4.23244 -0.34183,156 c -0.32139,146.67556 -0.44769,156.23909 -2.11294,160 -0.97412,2.2 -2.84475,4.97325 -4.15695,6.16277 -1.31221,1.18952 -22.86084,14.06113 -47.88584,28.60358 -25.025,14.54244 -81.25469,47.24458 -124.95488,72.67142 -43.70018,25.42684 -81.07111,47.05516 -83.04651,48.06294 -4.4844,2.28777 -9.59392,3.08307 -13.49861,2.10107 z m 11,-78.46802 c 7.5847,-3.55981 172.65149,-99.56909 175.37888,-102.0072 6.36755,-5.69217 6.87972,-17.04698 1.01537,-22.51045 -1.22554,-1.14177 -8.21303,-5.47855 -15.52774,-9.63729 -7.31471,-4.15873 -13.54147,-7.9529 -13.83725,-8.43148 -0.29578,-0.47857 3.85164,-3.21967 9.21648,-6.09133 5.36484,-2.87165 12.12056,-6.61893 15.01271,-8.32728 9.37125,-5.53548 8.67986,4.44845 8.71279,-125.81659 C 787.49648,388.98405 787.31652,374.89713 786,373.64646 783.99094,371.73789 602.50288,271 601.07348,271 c -0.616,0 -23.49704,12.3139 -50.84674,27.36421 C 522.87703,313.41453 482.275,335.7411 460,347.97883 c -22.275,12.23772 -42.1875,23.33021 -44.25,24.64997 l -3.75,2.39958 0.0239,111.73581 c 0.0136,63.46454 0.41688,113.43042 0.93361,115.65842 1.47599,6.36396 3.94025,8.564 18.6097,16.61425 7.66306,4.20531 13.93283,8.22353 13.93283,8.92937 0,0.70584 -6.68848,5.18515 -14.86328,9.95402 -8.51246,4.96583 -15.77627,9.92399 -17,11.6039 -2.98861,4.1027 -2.97615,12.81052 0.0243,16.97585 2.22389,3.08729 8.87579,7.02969 120.33899,71.3217 56.15107,32.38796 63.086,36.15876 66.5,36.15876 1.1,0 4.25,-1.05601 7,-2.3467 z"
       id="path3865"
       inkscape:connector-curvature="0" />
    <path
       style="fill:#4557b6"
       d="m 591.5,847.92483 c -3.99396,-2.19182 -32.84716,-18.83661 -178,-102.68435 -42.35,-24.46354 -78.21674,-45.61476 -79.70386,-47.00271 -6.20699,-5.79305 -5.79668,5.78445 -5.79056,-163.3889 0.004,-107.11687 0.33495,-155.53514 1.08195,-158.22545 0.59201,-2.13212 2.727,-5.58054 4.74443,-7.66316 4.34276,-4.48309 255.11745,-150.33101 261.38475,-152.01862 4.45521,-1.19966 8.57651,-0.56141 13.95605,2.16132 2.02002,1.02238 35.77002,20.37603 75,43.0081 39.22998,22.63207 95.17724,54.88012 124.32724,71.66232 29.15,16.78221 54.46665,31.59972 56.25923,32.9278 1.79258,1.32807 4.15508,4.17069 5.25,6.31691 1.9621,3.84603 1.99077,6.11291 1.99077,157.39285 0,104.71826 -0.33813,155.06727 -1.06413,158.45247 -0.71531,3.33538 -2.14143,6.05582 -4.35064,8.29922 -1.87026,1.89919 -58.40247,35.40778 -131.18588,77.75839 C 609.71774,848.0516 607.39596,849.34879 601.5,849.73101 c -4.79325,0.31072 -6.8045,-0.0525 -10,-1.80618 z M 690,724.79046 c 45.925,-26.69187 85.3,-49.56394 87.5,-50.82683 6.58163,-3.77811 9.2715,-6.84269 10.49968,-11.96229 1.45245,-6.05451 0.0778,-11.63185 -3.73373,-15.14871 -1.52127,-1.40367 -8.49462,-5.79841 -15.49632,-9.7661 -7.0017,-3.96769 -12.94243,-7.55711 -13.20162,-7.97649 -0.25919,-0.41937 5.37657,-3.87819 12.5239,-7.68627 13.84893,-7.37866 16.96777,-9.92447 18.77203,-15.32299 C 787.68558,603.64234 788,571.05724 788,488.36497 V 374.02838 l -3.75,-2.40421 c -2.0625,-1.32231 -24,-13.6432 -48.75,-27.37977 C 710.75,330.50784 670.61398,308.18335 646.30884,294.63442 622.00371,281.08549 601.44702,270 600.6273,270 c -0.81971,0 -23.45869,12.08905 -50.30884,26.86457 -113.10492,62.24109 -136.88324,75.39184 -138.06846,76.35963 -1.63493,1.335 -1.83227,225.13905 -0.20369,231.00309 1.49977,5.40023 4.98278,8.30364 19.45255,16.2155 7.0987,3.88146 12.89646,7.50721 12.8839,8.05721 -0.0126,0.55 -6.01685,4.4637 -13.34288,8.69712 -7.32603,4.23342 -14.61419,8.93699 -16.19592,10.45237 -6.22697,5.96583 -5.7973,15.78012 0.9362,21.38404 3.46447,2.88328 33.21512,20.29248 132.71984,77.66372 52.32891,30.17117 47.08746,27.49856 53,27.02465 4.47676,-0.35882 13.73804,-5.47936 88.5,-48.93144 z"
       id="path3863"
       inkscape:connector-curvature="0" />
    <path
       style="fill:#3e50b4"
       d="m 596.30222,849.03462 c -1.75877,-0.41836 -21.33377,-11.22981 -43.5,-24.02544 C 530.636,812.21355 473.125,779.01075 425,751.22516 c -48.125,-27.78558 -88.9883,-51.94887 -90.80733,-53.6962 -1.81903,-1.74733 -3.89147,-4.8761 -4.60541,-6.95282 -1.04962,-3.05313 -1.21505,-33.28169 -0.8643,-157.926 0.258,-91.68386 0.81357,-155.39107 1.37101,-157.21243 0.51548,-1.68425 2.61771,-4.654 4.67163,-6.59944 3.15544,-2.98877 239.22777,-140.93209 255.12532,-149.07648 5.95892,-3.05278 11.35992,-3.51967 16.3912,-1.41693 2.8944,1.20966 36.74444,20.65012 206.21788,118.43326 28.05,16.18435 52.05526,30.39264 53.34501,31.57398 1.28976,1.18135 3.08581,3.4979 3.99122,5.1479 1.5124,2.75615 1.6198,15.68028 1.32139,159 -0.31988,153.63048 -0.35522,156.06445 -2.32704,160.24302 -1.10123,2.33366 -3.20111,5.09647 -4.66641,6.13956 -1.46529,1.0431 -25.83917,15.37803 -54.16417,31.8554 -28.325,16.47737 -85.025,49.46588 -126,73.3078 -40.975,23.84192 -76.075,43.91538 -78,44.60769 -3.93846,1.41643 -5.14597,1.46389 -9.69778,0.38115 z m 11.98762,-76.16513 C 610.60543,771.69771 648.725,749.70548 693,723.99786 c 44.275,-25.70761 82.3,-47.77483 84.5,-49.03826 8.54259,-4.9059 11.5,-9.37093 11.5,-17.36238 0,-9.18686 -1.53608,-10.85603 -19.18405,-20.84626 -7.04494,-3.98803 -12.81055,-7.49812 -12.81247,-7.80019 -0.002,-0.30208 4.58308,-3.00208 10.18887,-6 17.04198,-9.11388 18.38086,-10.14976 20.20081,-15.62912 1.45563,-4.38248 1.59019,-16.22017 1.36108,-119.73811 L 788.5,372.70872 695.5,320.89881 C 644.35,292.40336 601.70279,269.0689 600.72841,269.04445 599.10036,269.0036 577.14821,280.93652 454,348.80421 l -43.5,23.9731 -0.25424,114.84253 -0.25425,114.84252 2.45583,5.01952 c 2.34359,4.79014 3.08307,5.36223 16.18171,12.51882 7.54923,4.12462 13.85878,7.9493 14.02122,8.4993 0.16243,0.55 -6.0359,4.6 -13.77408,9 -8.28983,4.71367 -14.92561,9.19473 -16.15367,10.90837 -2.90003,4.04671 -3.46653,12.2215 -1.18074,17.03844 0.97161,2.04751 3.38469,4.73848 5.36239,5.97992 7.66003,4.80836 168.76935,97.84347 175.59583,101.40058 5.16822,2.69303 10.52315,2.70734 15.78984,0.0422 z"
       id="path3861"
       inkscape:connector-curvature="0" />
  </g>
</svg>
